<svg width="206" height="137" viewBox="0 0 206 137" fill="none" xmlns="http://www.w3.org/2000/svg">
<g clip-path="url(#clip0_388_3559)">
<path d="M183.311 136.745C196.46 136.116 206.607 124.998 205.976 111.912C205.344 98.8251 194.173 88.7259 181.024 89.3545C167.875 89.9831 157.727 101.101 158.359 114.188C158.991 127.274 170.162 137.374 183.311 136.745Z" fill="#475467"/>
<path d="M158.34 112.653C158.34 112.653 158.34 112.693 158.34 112.717C158.148 125.817 168.664 136.59 181.826 136.776C194.989 136.967 205.813 126.501 206 113.401C206 113.378 206 113.361 206 113.337L158.34 112.653Z" fill="#475467"/>
<path d="M165.434 112.815C165.3 122.011 172.686 129.576 181.925 129.709C191.164 129.843 198.766 122.492 198.9 113.297C199.034 104.101 191.648 96.5361 182.409 96.4027C173.17 96.2692 165.568 103.62 165.434 112.815Z" fill="#FAFAFA"/>
<path d="M182.409 96.4027C173.17 96.2692 165.568 103.62 165.434 112.815L198.9 113.297C199.034 104.101 191.648 96.5361 182.409 96.4027Z" fill="#E0E0E0"/>
<path d="M171.975 112.908C171.893 118.512 176.393 123.119 182.019 123.2C187.65 123.281 192.278 118.802 192.36 113.204C192.441 107.6 187.941 102.993 182.316 102.912C176.685 102.831 172.056 107.31 171.975 112.908Z" fill="#475467"/>
<path d="M170.856 78.2729C170.856 78.2729 195.257 70.9281 205.353 97.3136L154.289 113.053L170.861 78.2729H170.856Z" fill="#98A2B3"/>
<path d="M36.2508 136.747C49.3998 136.119 59.5472 125 58.9156 111.914C58.284 98.8273 47.1126 88.7281 33.9636 89.3567C20.8146 89.9853 10.6673 101.104 11.2989 114.19C11.9305 127.277 23.1018 137.376 36.2508 136.747Z" fill="#475467"/>
<path d="M11.2738 112.653C11.2738 112.653 11.2738 112.693 11.2738 112.717C11.0815 125.817 21.5974 136.59 34.7599 136.776C47.9224 136.967 58.7473 126.501 58.9338 113.401C58.9338 113.378 58.9338 113.361 58.9338 113.337L11.2738 112.653Z" fill="#475467"/>
<path d="M18.368 112.815C18.2339 122.011 25.6196 129.576 34.859 129.709C44.0983 129.843 51.6997 122.492 51.8338 113.297C51.9678 104.101 44.5822 96.5361 35.3428 96.4027C26.1034 96.2692 18.5021 103.62 18.368 112.815Z" fill="#FAFAFA"/>
<path d="M35.3427 96.4027C26.1033 96.2692 18.502 103.62 18.3679 112.815L51.8337 113.297C51.9677 104.101 44.5821 96.5361 35.3427 96.4027Z" fill="#E0E0E0"/>
<path d="M24.9086 112.908C24.827 118.512 29.3271 123.119 34.9524 123.2C40.5834 123.281 45.2119 118.802 45.2935 113.204C45.3751 107.6 40.8749 102.993 35.2497 102.912C29.6186 102.831 24.9902 107.31 24.9086 112.908Z" fill="#475467"/>
<path d="M69.0066 103.533C68.8726 103.602 56.4621 101.624 56.4621 101.624C55.1039 103.388 53.0287 104.467 50.8019 104.571C45.439 104.826 40.1985 105.064 35.6575 105.262C31.4254 105.447 28.1436 109.015 28.3184 113.227C28.4875 117.219 31.6994 120.404 35.7041 120.56L62.099 121.593C66.4418 121.761 72.2069 119.139 74.9175 115.757L69.0008 103.521L69.0066 103.533Z" fill="#344054"/>
<path d="M4.16221 93.0319C4.16221 93.0319 3.02551 69.9127 24.8561 65.0974V62.1328H101.33V69.1991C101.33 69.1991 90.1029 82.6529 93.7695 93.8209C97.4361 104.995 98.5786 106.132 98.5786 106.132H142.1C142.1 106.132 147.369 99.518 147.597 89.7192C147.824 79.9145 143.732 63.1539 140.678 52.4384C137.897 42.6976 136.142 34.5464 136.142 34.5464L149.2 30.2126C149.2 30.2126 173.362 61.6513 174.347 63.4207C175.332 65.1902 178.69 69.3151 177.897 78.3481C177.105 87.3812 155.396 115.281 149.672 118.419C143.948 121.564 138.818 121.761 133.682 122.544C129.229 123.229 96.2761 122.776 87.6604 122.643C84.6642 122.597 81.7088 121.837 79.1497 120.293C76.5732 118.739 74.6321 116.163 72.4927 111.939L67.9517 103.098L4.16221 93.0319Z" fill="#98A2B3"/>
<path d="M10.0147 91.4248L0.378913 106.439C-0.856889 108.36 1.14255 110.779 3.24108 109.874C4.2612 109.433 5.3571 108.748 6.47048 107.692C10.8774 103.521 18.7294 92.5329 18.7294 92.5329L10.0088 91.4248H10.0147Z" fill="#344054"/>
<path d="M79.0855 94.1285C79.0855 94.1285 79.0972 94.053 79.1438 93.908C79.1904 93.7514 79.2546 93.5425 79.3362 93.2756C79.4994 92.7187 79.6976 91.8891 79.8433 90.7984C80.0881 88.6344 79.9774 85.3333 78.351 81.7363C77.5582 79.9437 76.3866 78.1104 74.801 76.4279C73.2096 74.7571 71.2452 73.2139 68.9484 71.9839C66.6634 70.7482 64.0752 69.7735 61.3121 69.1528C58.5432 68.532 55.5994 68.2535 52.5857 68.2535C49.572 68.2535 46.6341 68.5204 43.8127 68.8917C40.9913 69.2688 38.2866 69.7329 35.7333 70.3131C30.6328 71.456 26.1967 73.1442 22.7633 75.0878C19.3182 77.0197 16.8757 79.1314 15.3485 80.7153C14.579 81.5043 14.0252 82.1598 13.658 82.6124C13.4831 82.827 13.349 83.0011 13.2441 83.1287C13.1508 83.2447 13.0984 83.3028 13.0925 83.297C13.0925 83.297 13.7454 82.2527 15.261 80.634C16.765 79.0154 19.2016 76.8688 22.6525 74.9021C26.0918 72.918 30.5511 71.2007 35.6692 70.0404C38.2283 69.4544 40.9389 68.9787 43.7719 68.5958C46.5991 68.2187 49.5545 67.946 52.5857 67.946C55.6169 67.946 58.584 68.2303 61.3762 68.8569C64.1684 69.4835 66.7741 70.4697 69.0825 71.7287C71.3967 72.976 73.3845 74.5482 74.9875 76.2481C76.5848 77.9595 77.7623 79.8218 78.5492 81.6435C80.1639 85.2927 80.2455 88.6344 79.9599 90.8042C79.7967 91.9007 79.581 92.7361 79.3945 93.2872C79.3012 93.5483 79.2254 93.7572 79.173 93.908C79.1205 94.0472 79.0913 94.1168 79.0855 94.1168V94.1285Z" fill="#475467"/>
<path d="M74.6785 88.9419C74.6435 88.9303 74.8067 88.5764 74.9641 87.9151C75.1448 87.2537 75.2206 86.25 75.0515 85.0433C74.8825 83.8308 74.4161 82.4326 73.6292 81.0112C73.2445 80.2976 72.7723 79.5898 72.2185 78.8995C71.6764 78.2033 71.041 77.5419 70.324 76.9443C68.8842 75.7434 67.287 74.8964 65.7772 74.2988C64.2558 73.7129 62.8218 73.3648 61.6035 73.1617C60.3851 72.9587 59.3825 72.8716 58.6947 72.831C58.001 72.7904 57.6221 72.773 57.6221 72.7498C57.6221 72.7382 57.7153 72.7324 57.9019 72.7208C58.0826 72.7208 58.3566 72.7034 58.7005 72.7092C59.3942 72.7092 60.4026 72.7672 61.6384 72.9471C62.8742 73.1211 64.3315 73.4518 65.8821 74.0319C67.421 74.6295 69.0532 75.4823 70.5222 76.7065C71.2567 77.3214 71.9037 77.9944 72.4575 78.708C73.0171 79.41 73.4951 80.141 73.8799 80.872C74.6668 82.3224 75.1215 83.7612 75.2672 85.0085C75.413 86.25 75.3022 87.2769 75.0807 87.9383C75.0107 88.2806 74.865 88.5184 74.8009 88.6925C74.7251 88.8607 74.6843 88.9477 74.6726 88.9419H74.6785Z" fill="#F5F5F5"/>
<g opacity="0.4">
<path d="M59.7033 68.6887C63.9762 69.5009 67.7127 71.0267 71.2161 73.3532C74.7195 75.6796 77.4068 78.9807 78.9282 82.8909C80.4496 86.8012 80.2281 91.982 78.6193 95.2192L84.023 95.6659C85.8417 89.6265 83.8598 82.2179 79.4878 77.4897C74.3581 71.9434 67.3047 68.6887 59.6975 68.6887" fill="#003B5B"/>
</g>
<path d="M101.289 64.8305C101.289 64.9118 84.1045 64.9814 62.9035 64.9814C41.7025 64.9814 24.5178 64.9118 24.5178 64.8305C24.5178 64.7493 41.7025 64.6797 62.9035 64.6797C84.1045 64.6797 101.289 64.7493 101.289 64.8305Z" fill="#475467"/>
<path d="M101.33 62.1387C101.33 62.1387 102.589 60.6419 102.712 58.7274C102.834 56.8129 101.954 54.4285 99.8902 54.4285H73.4837C69.205 54.4285 65.7366 57.8804 65.7366 62.1387H101.33Z" fill="#344054"/>
<path d="M136.148 34.5523L131.555 25.0204C130.301 22.311 131.298 19.0912 133.875 17.5654L147.608 9.41418C148.325 8.99066 149.147 8.7644 149.981 8.7644H152.948L154.137 28.0314L149.561 29.7718L152.458 34.4595L136.148 34.5523Z" fill="#98A2B3"/>
<path d="M152.995 9.46064C152.995 9.46064 157.693 10.5339 158.282 17.7395C158.87 24.9508 154.137 27.1902 154.137 27.1902L152.989 9.45483L152.995 9.46064Z" fill="#EBEBEB"/>
<path d="M137.745 21.2842C137.745 21.2842 128.249 25.763 127.089 26.4998C126.285 27.0104 125.597 27.9038 126.227 29.476C127.305 32.1563 131.741 29.6327 131.741 29.6327L140.578 25.2351C140.578 25.2351 143.977 23.6396 142.723 21.6381C141.319 19.3987 137.745 21.2842 137.745 21.2842Z" fill="#475467"/>
<path d="M138.2 7.28498C138.2 10.8819 136.539 13.7943 134.493 13.7943C132.446 13.7943 130.785 10.8819 130.785 7.28498C130.785 3.68801 132.446 0.775635 134.493 0.775635C136.539 0.775635 138.2 3.68801 138.2 7.28498Z" fill="#475467"/>
<path d="M135.105 11.7579L137.139 18.7836C138.048 18.3252 138.241 17.4202 138.089 16.7066C137.576 14.299 137.291 12.5875 136.725 10.4757C136.655 10.2611 135.099 11.7521 135.099 11.7521" fill="#475467"/>
<g opacity="0.4">
<path d="M94.772 96.8262C94.568 96.246 94.3639 95.6543 94.1716 95.0451C93.9909 94.4765 93.7752 93.8906 93.6236 93.3278C93.3438 92.3184 93.1806 91.2799 93.1165 90.6823C89.6772 104.618 94.9294 114.428 103.941 115.118C117.11 116.128 133.169 116.859 139.663 115.165C151.502 112.073 155.845 102.251 156.883 100.626C157.92 99.0075 167.335 81.8756 161.564 65.3817C155.793 48.8879 145.731 31.373 145.731 31.373L136.142 34.5523C136.142 34.5523 137.897 42.6977 140.677 52.4443C143.732 63.1597 147.824 79.9204 147.597 89.7251C147.369 99.5297 142.1 106.138 142.1 106.138H98.5785C98.5785 106.138 97.6458 105.209 94.772 96.8262Z" fill="#003B5B"/>
</g>
<path d="M2.41922 89.406L2.72817 86.0991L82.1692 95.2076C86.6519 95.7297 89.7706 99.901 88.9836 104.328L88.628 106.329L6.40643 94.4417C3.94648 94.0879 2.19188 91.8717 2.41922 89.406Z" fill="#98A2B3"/>
<g opacity="0.6">
<path d="M2.41922 89.406L2.72817 86.0991L82.1692 95.2076C86.6519 95.7297 89.7706 99.901 88.9836 104.328L88.628 106.329L6.40643 94.4417C3.94648 94.0879 2.19188 91.8717 2.41922 89.406Z" fill="#003B5B"/>
</g>
<g opacity="0.3">
<path d="M156.883 111.527C156.883 111.527 174.371 92.3823 177.979 77.333C179.191 77.3214 182.013 77.4433 183.394 77.7333C183.394 77.7333 173.053 105.714 156.883 111.527Z" fill="#003B5B"/>
</g>
<path d="M177.722 70.5857C177.722 70.5857 177.763 70.7481 177.816 71.0672C177.862 71.3863 177.955 71.8562 178.014 72.4654C178.124 73.6837 178.2 75.4822 177.88 77.6636C177.565 79.845 176.813 82.3861 175.571 85.02C174.359 87.6655 172.68 90.398 170.943 93.2582C167.439 98.9959 163.54 103.684 160.707 107.037C159.284 108.708 158.107 110.042 157.291 110.965C156.894 111.405 156.58 111.754 156.346 112.015C156.125 112.252 156.008 112.374 156.002 112.368C155.997 112.363 156.096 112.229 156.3 111.974C156.521 111.707 156.824 111.342 157.203 110.883C158.014 109.92 159.144 108.563 160.543 106.898C163.336 103.515 167.195 98.8103 170.686 93.1015C172.429 90.2414 174.102 87.5262 175.321 84.9039C176.568 82.2932 177.332 79.787 177.67 77.6346C178.02 75.4764 177.979 73.7011 177.897 72.4828C177.856 71.8736 177.781 71.4037 177.757 71.0788C177.722 70.7597 177.711 70.5857 177.722 70.5857Z" fill="#475467"/>
<path d="M147.492 111.388C147.434 111.446 146.18 110.321 144.694 108.87C143.207 107.42 142.047 106.196 142.106 106.138C142.164 106.08 143.417 107.205 144.909 108.656C146.396 110.106 147.556 111.33 147.498 111.388H147.492Z" fill="#475467"/>
<path d="M95.5939 110.796C95.5239 110.761 96.0019 109.595 96.8763 108.319C97.7449 107.037 98.6601 106.161 98.7125 106.219C98.7767 106.277 97.9781 107.228 97.127 108.493C96.2643 109.752 95.6697 110.837 95.5939 110.802V110.796Z" fill="#475467"/>
<path d="M61.9882 121.854C61.9183 121.796 63.2415 120.955 64.3724 118.837C64.9378 117.793 65.3984 116.429 65.5383 114.863C65.684 113.308 65.4566 111.545 64.6872 109.909C63.8886 108.284 62.6586 107.002 61.3528 106.132C60.0413 105.256 58.6889 104.757 57.5172 104.536C55.1505 104.078 53.6641 104.577 53.6641 104.484C53.6641 104.472 53.7515 104.449 53.9264 104.409C54.1013 104.374 54.3519 104.293 54.69 104.264C55.3604 104.159 56.3572 104.13 57.558 104.333C58.7588 104.53 60.1579 105.024 61.5102 105.905C62.8626 106.781 64.1392 108.098 64.9612 109.781C65.7539 111.475 65.9754 113.291 65.8122 114.892C65.6548 116.493 65.1535 117.886 64.5531 118.942C63.9585 119.997 63.3057 120.752 62.7985 121.204C62.5595 121.448 62.338 121.587 62.1981 121.703C62.0582 121.813 61.9824 121.866 61.9707 121.854H61.9882Z" fill="#475467"/>
<path d="M32.9819 115.791C32.9003 115.791 32.7721 114.544 32.6963 113.001C32.6205 111.458 32.6322 110.205 32.7138 110.199C32.7954 110.199 32.9236 111.44 32.9994 112.989C33.0752 114.532 33.0635 115.786 32.9819 115.791Z" fill="#475467"/>
<path d="M35.0864 115.797C35.0048 115.809 34.7774 114.562 34.5792 113.018C34.381 111.469 34.2878 110.21 34.3694 110.199C34.451 110.187 34.6783 111.435 34.8765 112.984C35.0747 114.533 35.168 115.792 35.0864 115.803V115.797Z" fill="#475467"/>
<path d="M67.8525 62.1386C67.8525 62.2199 58.1934 62.2895 46.2843 62.2895C34.3751 62.2895 24.7102 62.2199 24.7102 62.1386C24.7102 62.0574 34.3693 61.9878 46.2843 61.9878C58.1993 61.9878 67.8525 62.0574 67.8525 62.1386Z" fill="#475467"/>
<path d="M17.278 129.158C17.278 129.158 17.1847 129.077 17.0215 128.903C16.8641 128.723 16.6193 128.474 16.3395 128.12C15.7624 127.429 14.9929 126.373 14.1885 124.975C12.5796 122.208 10.9824 117.88 10.9999 112.931C11.0232 107.977 12.6554 103.666 14.2876 100.91C15.1037 99.5181 15.8848 98.468 16.4619 97.7834C16.7417 97.4296 16.9924 97.1859 17.1498 97.006C17.313 96.832 17.4004 96.745 17.4062 96.7508C17.4121 96.7566 17.3421 96.861 17.1964 97.0466C17.0565 97.2381 16.8175 97.4934 16.5552 97.8531C16.0072 98.5609 15.2553 99.6225 14.4741 101.015C12.9002 103.776 11.3205 108.041 11.303 112.931C11.2855 117.816 12.8245 122.098 14.375 124.871C15.1445 126.269 15.8848 127.337 16.4328 128.05C16.6951 128.416 16.9282 128.677 17.0682 128.862C17.2139 129.048 17.2838 129.152 17.278 129.158Z" fill="#344054"/>
<path d="M173.47 24.9598L163.422 22.3207L163.82 20.8067L174.21 12.6187L166.503 10.5941L166.922 8.99756L176.969 11.6367L176.564 13.1782L166.154 21.3314L173.889 23.3632L173.47 24.9598Z" fill="#667085"/>
<path d="M183.32 27.5611L176.974 25.8943L177.225 24.9381L183.787 19.7667L178.919 18.4881L179.184 17.4797L185.53 19.1465L185.274 20.1201L178.699 25.2696L183.585 26.5528L183.32 27.5611Z" fill="#667085"/>
<path d="M192.957 32.0865L186.611 30.4197L186.862 29.4635L193.424 24.2921L188.556 23.0135L188.821 22.0051L195.167 23.6719L194.911 24.6455L188.336 29.7949L193.221 31.0782L192.957 32.0865Z" fill="#667085"/>
<path d="M200.834 34.7591L196.571 33.6394L196.74 32.997L201.148 29.523L197.878 28.664L198.056 27.9866L202.319 29.1063L202.147 29.7604L197.73 33.2197L201.012 34.0817L200.834 34.7591Z" fill="#667085"/>
</g>
<defs>
<clipPath id="clip0_388_3559">
<rect width="206" height="136" fill="white" transform="translate(0 0.775635)"/>
</clipPath>
</defs>
</svg>
