<svg width="144" height="244" viewBox="0 0 144 244" fill="none" xmlns="http://www.w3.org/2000/svg">
<g clip-path="url(#clip0_14_15272)">
<path d="M90.1181 129.155C93.1105 127.952 93.706 125.629 93.8175 124.552C89.7754 125.318 86.0685 125.359 84.7863 125.346C84.6532 126.795 84.4373 128.173 84.1621 129.478C84.9481 129.771 87.143 130.353 90.1181 129.156V129.155Z" fill="#0077B6"/>
<path d="M94.7792 124.357C94.7041 125.494 94.1525 128.555 90.4729 130.036C88.8576 130.686 87.4487 130.863 86.322 130.833C85.2583 130.804 84.4487 130.59 83.9506 130.414C82.4182 136.828 79.4946 141.328 78.0742 143.512C77.729 144.042 77.3717 144.592 77.3297 144.741C77.2685 145.492 78.5908 154.71 82.1086 157.999C83.0373 158.867 84.001 159.211 85.0583 159.054C86.4054 158.851 87.2901 158.315 87.6888 157.459C88.7156 155.256 86.4869 151.588 86.464 151.551C86.3334 151.338 86.3901 151.061 86.5939 150.916C100.284 141.211 104.267 124.892 105.3 118.894C102.932 121.882 98.7735 123.491 94.7786 124.357L94.7792 124.357Z" fill="#2A8EC2"/>
<g opacity="0.35">
<path d="M90.1181 129.155C93.1105 127.952 93.706 125.629 93.8175 124.552C89.7754 125.318 86.0685 125.359 84.7863 125.346C84.6532 126.795 84.4373 128.173 84.1621 129.478C84.9481 129.771 87.143 130.353 90.1181 129.156V129.155Z" fill="#003B5B"/>
</g>
<g opacity="0.2">
<path d="M83.8099 142.483C87.4156 136.763 94.2468 130.273 99.4907 126.924C102.214 125.184 103.798 123.299 104.693 121.889C104.961 120.729 105.159 119.713 105.3 118.894C102.933 121.882 98.7741 123.492 94.7792 124.357C94.7041 125.494 94.1525 128.555 90.4729 130.036C88.8576 130.686 87.4487 130.863 86.322 130.833C85.2583 130.804 84.4487 130.59 83.9506 130.414C82.4182 136.828 79.4946 141.328 78.0742 143.512C77.729 144.043 77.3717 144.592 77.3297 144.741C77.2685 145.492 78.5908 154.71 82.1086 157.999C83.0373 158.867 84.001 159.211 85.0583 159.054C85.5201 158.984 85.9232 158.872 86.2748 158.726C86.2857 158.713 86.2965 158.698 86.3079 158.685C83.05 158.568 82.1405 152.288 82.4666 150.714C82.8194 149.008 86.4162 151.166 86.4162 151.166L86.42 151.168C86.4493 151.07 86.5048 150.979 86.5939 150.916C88.7239 149.407 90.6181 147.737 92.3035 145.97C86.8614 149.392 80.6742 147.457 83.8092 142.483L83.8099 142.483Z" fill="#004F79"/>
</g>
<g opacity="0.4">
<path d="M86.7595 156.055C86.7901 157.297 86.6958 158.216 86.3079 158.685C86.3296 158.685 86.3506 158.687 86.3729 158.687C86.9984 158.406 87.4392 157.995 87.6888 157.459C88.7156 155.256 86.4869 151.588 86.464 151.551C86.4449 151.52 86.4379 151.485 86.4264 151.451L86.0366 151.391C86.0366 151.391 86.713 154.218 86.7589 156.054L86.7595 156.055Z" fill="#EBF8FF"/>
</g>
<g opacity="0.35">
<path d="M86.2754 158.726C86.3072 158.713 86.3423 158.702 86.3735 158.688C86.3512 158.688 86.3302 158.686 86.3085 158.685C86.2977 158.699 86.2869 158.713 86.2754 158.726Z" fill="#003B5B"/>
</g>
<g opacity="0.4">
<path d="M86.2754 158.726C86.3072 158.713 86.3423 158.702 86.3735 158.688C86.3512 158.688 86.3302 158.686 86.3085 158.685C86.2977 158.699 86.2869 158.713 86.2754 158.726Z" fill="#EBF8FF"/>
</g>
<path d="M84.5602 160.615C83.2742 160.615 82.0736 160.084 80.9812 159.029C77.0169 155.202 75.7252 145.354 75.8195 144.544C75.8704 144.105 76.1411 143.689 76.7952 142.683C78.5296 140.016 82.5914 133.77 83.3041 124.78C83.3487 124.223 83.8213 123.802 84.3837 123.816C84.5563 123.821 101.719 124.266 105.134 116.227C105.335 115.752 105.852 115.496 106.353 115.619C106.854 115.743 107.19 116.212 107.146 116.725C107.126 116.96 106.623 122.549 103.961 129.732C101.566 136.193 96.9072 145.148 88.2353 151.608C88.9557 153.036 90.1003 155.897 89.0729 158.102C88.4449 159.45 87.171 160.276 85.2863 160.56C85.0417 160.597 84.7997 160.615 84.5608 160.615H84.5602ZM77.9093 144.854C77.9666 146.27 79.3666 154.82 82.6111 157.68C83.3685 158.348 84.1417 158.614 84.9729 158.487C86.1321 158.313 86.8506 157.898 87.1678 157.219C87.9111 155.63 86.5589 152.804 85.9748 151.85C85.6875 151.38 85.813 150.767 86.2621 150.448C98.5372 141.747 102.91 127.633 104.373 120.681C98.9072 125.466 88.5697 125.905 85.3054 125.919C84.35 134.913 80.3131 141.119 78.5551 143.823C78.3016 144.213 78.0188 144.648 77.9086 144.854L77.9093 144.854Z" fill="#003B5B"/>
<path d="M86.5741 131.405C84.4817 131.405 83.1932 130.723 83.1117 130.678C82.6028 130.401 82.4155 129.764 82.6932 129.256C82.9709 128.749 83.6085 128.562 84.1174 128.839C84.2027 128.883 86.4454 130.014 89.9027 128.623C93.4358 127.201 93.2683 124.052 93.2664 124.02C93.2282 123.443 93.6658 122.944 94.2441 122.906C94.818 122.866 95.3224 123.304 95.3606 123.882C95.4683 125.501 94.6301 128.981 90.6874 130.568C89.1174 131.199 87.7237 131.405 86.5741 131.405Z" fill="#003B5B"/>
<g opacity="0.4">
<path d="M94.5842 141.168C94.796 140.569 93.9321 139.719 92.6547 139.268C91.3772 138.818 90.17 138.939 89.9582 139.538C89.7464 140.137 90.6103 140.988 91.8877 141.438C93.1652 141.888 94.3724 141.767 94.5842 141.168Z" fill="#EBF8FF"/>
</g>
<path d="M78.4445 11.0902C79.119 10.031 81.6986 6.60007 85.9387 8.29072C88.6438 9.36907 88.7374 12.3218 88.3559 14.0563C88.7355 14.2509 89.0947 14.4474 89.4342 14.6438C91.1297 15.5728 92.5469 16.6391 93.6081 17.8121C93.9775 16.7115 94.5915 14.5275 94.6106 12.1254C94.6469 7.63964 92.682 4.53365 88.7718 2.89323C84.9311 1.63239 81.4973 1.74493 78.5668 3.2264C74.6228 5.22033 72.6305 9.19676 71.9783 10.7482C72.7292 10.7329 73.4572 10.7361 74.1649 10.7552C75.691 10.7965 77.1152 10.9141 78.4445 11.0909V11.0902Z" fill="#2A8EC2"/>
<path d="M93.452 19.108L93.3953 19.0348C93.3819 19.0177 93.3672 19.0011 93.3545 18.984C93.0743 18.6438 91.145 16.4356 87.0718 14.5345C83.9062 13.1586 79.9903 12.2118 75.7228 11.8583C66.9878 11.1354 58.5732 13.0238 52.6267 17.0415C47.4376 20.5475 43.9777 23.9249 41.6191 27.6369C40.4255 29.9239 38.4026 34.4084 37.2268 40.3508C36.8039 43.0784 36.5338 46.0592 36.3083 49.3763C36.4319 50.2384 38.5064 63.5118 49.4828 71.2409C57.5101 76.894 68.2827 78.2909 81.5004 75.3941C96.3889 71.9772 103.514 64.2087 106.868 58.2937C110.517 51.8585 110.709 46.049 109.947 43.7136C108.166 38.2475 99.3112 26.7296 93.452 19.108Z" fill="#EBF8FF"/>
<path d="M29.5478 39.734C28.7141 38.5705 28.4854 37.178 28.8689 35.5948C29.2491 34.0256 30.0899 32.8849 31.3669 32.2046C33.7695 30.9253 37.0357 31.6521 38.3987 32.0495C39.0172 30.4256 39.7618 28.8971 40.6567 27.4321C41.021 26.7206 41.3242 26.1834 41.5223 25.8464C38.0542 23.8467 34.5879 22.79 31.4485 22.7048C28.8262 22.6342 26.4326 23.2408 24.4523 24.5417C20.6785 27.0214 18.9454 31.6521 19.6982 37.2454C20.3918 42.3981 23.2905 45.9269 28.3134 47.7339C31.3383 48.8212 34.2726 48.928 35.3605 48.9274C35.3924 46.8043 35.5669 44.7843 35.8357 42.8794C34.5631 42.6887 31.1593 41.9829 29.5478 39.734Z" fill="#2A8EC2"/>
<path d="M31.8127 33.0433C30.7866 33.5907 30.107 34.5247 29.7929 35.8186C29.4777 37.1208 29.6547 38.2519 30.3191 39.1808C31.705 41.1169 34.8286 41.7636 35.9776 41.9403C36.1267 41.012 36.2974 40.113 36.4859 39.2476C36.8878 36.9803 37.4005 34.8941 38.0751 32.9479C36.8012 32.5874 33.8611 31.9522 31.8127 33.0439V33.0433Z" fill="#EBF8FF"/>
<path d="M85.5864 9.17194C82.3476 7.87995 80.2756 10.1149 79.4775 11.2428C82.7342 11.7693 85.3737 12.6524 87.4692 13.6252C87.6667 12.4947 87.8049 10.057 85.5864 9.17194Z" fill="#EBF8FF"/>
<path d="M55.214 45.5226C55.214 45.5226 56.8904 39.4848 62.7879 36.1741C68.6846 32.8633 76.1056 35.186 76.4107 40.5428C76.7158 45.899 71.9464 48.3424 67.6675 55.3301C63.3885 62.3178 51.509 55.5062 55.2147 45.5226H55.214Z" fill="#2A8EC2"/>
<path d="M81.6324 38.0961C79.8942 35.9737 80.1585 32.8461 82.2254 31.041C84.1744 29.3389 87.7674 26.9571 92.4775 27.1365C99.7539 27.413 100.42 28.3318 102.136 29.8877C103.853 31.4429 106.84 40.4251 101.076 41.8614C95.3113 43.2978 90.1839 40.8327 86.505 40.7742C84.7336 40.7462 82.8782 39.6176 81.6317 38.0967L81.6324 38.0961Z" fill="#2A8EC2"/>
<g opacity="0.2">
<path d="M91.722 47.4872C91.722 47.4872 92.5692 47.9183 91.2603 53.9656C89.9513 60.0129 86.7214 61.5027 86.7214 61.5027C86.7214 61.5027 88.0163 58.5594 88.1717 56.046C88.3272 53.5326 87.9647 52.1179 87.9647 52.1179C87.9647 52.1179 89.6112 51.4306 89.9074 51.0714C90.2036 50.7121 91.722 47.4872 91.722 47.4872Z" fill="#004F79"/>
</g>
<g opacity="0.2">
<path d="M76.1113 52.6794C76.1113 52.6794 80.026 52.7379 82.3654 51.6919C84.7043 50.6454 82.3438 49.464 82.3438 49.464C82.3438 49.464 84.5947 49.6338 84.8743 49.3903C85.154 49.1474 85.5979 48.5262 85.5979 48.5262L85.9336 48.2903C85.9336 48.2903 86.8418 49.478 87.2813 49.8779C87.7202 50.2779 89.31 49.7171 90.2036 47.6748C90.2036 47.6748 90.2023 48.4867 90.1673 49.0164C90.1323 49.546 89.0546 50.8437 88.7234 50.9982C88.3921 51.1527 87.238 51.4891 86.9928 51.4821C86.7476 51.4757 86.1164 51.3766 85.9304 51.4535C85.7444 51.5304 84.3221 52.6349 83.0788 53.2751C81.8355 53.9154 80.4406 54.2498 79.9578 54.2448C79.475 54.2397 77.7202 54.1106 77.6387 54.0877C77.5578 54.0648 76.112 52.6787 76.112 52.6787L76.1113 52.6794Z" fill="#004F79"/>
</g>
<g opacity="0.2">
<path d="M78.2375 70.9319C60.1624 72.4038 48.8268 63.5742 43.3912 53.6299C37.988 43.7448 42.6835 28.3102 42.7421 28.0972C42.7421 28.0972 39.6695 34.8611 38.4937 40.8035C38.2294 42.5081 38.025 44.2185 37.853 46.0713C37.6097 48.6991 37.9339 51.3492 38.816 53.8366C40.5097 58.6135 44.0727 66.1995 50.3542 70.2853C58.5853 75.6383 68.2834 78.2909 81.5011 75.3935C96.3896 71.9766 103.514 64.2081 106.868 58.293C109.828 53.0749 110.513 48.2674 110.261 45.3909C108.223 56.7524 95.9858 69.486 78.2381 70.9313L78.2375 70.9319Z" fill="#004F79"/>
</g>
<g opacity="0.2">
<path d="M35.4869 46.1686C32.5347 45.9975 25.1717 44.4054 22.7067 39.2966C20.4125 34.5413 21.95 28.0355 22.3366 26.5935C22.2093 26.6768 22.0882 26.7582 21.9761 26.8364C19.9596 29.4439 19.1373 33.0763 19.6984 37.2461C20.3921 42.3988 23.2908 45.9276 28.3137 47.7346C31.3385 48.8218 34.2729 48.9287 35.3608 48.928C35.3748 47.9864 35.4213 47.0689 35.4869 46.1692V46.1686Z" fill="#004F79"/>
</g>
<g opacity="0.2">
<path d="M32.1351 34.6932C34.1338 33.5437 36.8784 34.3009 37.5739 34.5235C37.7306 33.9881 37.8962 33.4623 38.0746 32.9473C36.8007 32.5868 33.8606 31.9516 31.8122 33.0433C30.7861 33.5907 30.1065 34.5248 29.7925 35.8186C29.4772 37.1208 29.6542 38.2519 30.3186 39.1809C30.5077 39.4454 30.7319 39.6838 30.9765 39.9025C30.7753 39.0836 30.1269 35.8479 32.1338 34.6939L32.1351 34.6932Z" fill="#004F79"/>
</g>
<g opacity="0.4">
<path d="M31.2098 24.3191C36.4104 24.707 39.5772 26.7632 40.5976 27.5345C40.618 27.5008 40.6365 27.4658 40.6568 27.4321C41.0212 26.7206 41.3244 26.1834 41.5224 25.8464C38.0543 23.8467 34.5881 22.79 31.4486 22.7048C28.8263 22.6342 26.4327 23.2408 24.4525 24.5417C23.6862 25.0453 23.0085 25.6417 22.4143 26.3124C22.406 26.3411 22.378 26.4364 22.3359 26.5935C24.0372 25.484 27.1181 24.014 31.2091 24.3191H31.2098Z" fill="#EBF8FF"/>
</g>
<g opacity="0.35">
<path d="M22.4149 26.3131C22.264 26.4835 22.1156 26.6564 21.9761 26.8364C22.0882 26.7581 22.2092 26.6768 22.3366 26.5935C22.3786 26.4371 22.406 26.3411 22.4149 26.3124V26.3131Z" fill="#003B5B"/>
</g>
<g opacity="0.4">
<path d="M22.4149 26.3131C22.264 26.4835 22.1156 26.6564 21.9761 26.8364C22.0882 26.7581 22.2092 26.6768 22.3366 26.5935C22.3786 26.4371 22.406 26.3411 22.4149 26.3124V26.3131Z" fill="#EBF8FF"/>
</g>
<g opacity="0.4">
<path d="M82.0202 3.29824C85.5686 2.46913 89.2489 3.50679 90.9756 4.12609C90.3259 3.6524 89.5947 3.23848 88.7718 2.89323C84.9311 1.63239 81.4973 1.74493 78.5668 3.2264C74.6228 5.22033 72.6305 9.19676 71.9783 10.7482C72.5859 10.7361 73.1744 10.7386 73.7534 10.7482C74.4547 9.54456 77.7266 4.30094 82.0196 3.29761L82.0202 3.29824Z" fill="#EBF8FF"/>
</g>
<g opacity="0.2">
<path d="M83.5789 9.88791C84.9617 9.48226 86.6891 10.0322 87.3694 11.0928C87.1216 10.3101 86.6031 9.57827 85.5859 9.17261C82.3471 7.88062 80.2751 10.1155 79.4771 11.2435C80.0942 11.3433 80.6821 11.4597 81.2554 11.583C81.6159 11.1551 82.514 10.2001 83.5783 9.88855L83.5789 9.88791Z" fill="#004F79"/>
</g>
<g opacity="0.35">
<path d="M92.4973 16.7331L92.5107 16.749C92.9081 17.093 93.2776 17.4465 93.6081 17.8121C93.9776 16.7115 94.5916 14.5275 94.6107 12.1253C94.6266 10.1206 94.2406 8.39306 93.4623 6.9472C93.9757 11.1023 92.4973 16.7331 92.4973 16.7331Z" fill="#003B5B"/>
</g>
<path d="M80.8717 47.3849C80.8908 47.301 83.78 47.6755 84.7819 45.5607C84.9997 45.101 84.8953 48.0805 83.8602 48.6025C83.587 48.7405 82.1099 48.5077 81.8208 48.3526C81.5322 48.1981 80.8711 47.3849 80.8711 47.3849H80.8717Z" fill="#003B5B"/>
<path d="M86.0232 52.474C86.0232 52.474 84.5787 54.1239 84.15 54.2454C83.7214 54.3668 80.6742 55.0427 80.5615 55.1775C80.4488 55.3129 80.3812 55.8756 80.3812 55.8756C80.3812 55.8756 80.1558 56.2584 80.6749 56.3716C81.194 56.4841 83.722 56.4561 84.1277 56.5382C84.5341 56.6195 86.8137 57.1403 87.0162 57.1727C87.2194 57.2051 87.6258 57.1727 87.6258 57.1727C87.6258 57.1727 87.7838 52.4288 87.4901 52.3392C87.1965 52.2489 86.0232 52.4746 86.0232 52.4746V52.474Z" fill="#003B5B"/>
<path d="M83.7794 60.5566C83.7794 60.5566 84.0768 60.7931 85.0074 60.4555C85.9386 60.1172 86.5475 59.8642 86.5985 59.6276C86.6494 59.3911 86.7749 59.1234 86.7208 58.8602C86.6666 58.597 86.8526 58.7489 86.345 58.377C85.8373 58.005 83.3826 57.38 82.5023 57.38C81.6221 57.38 80.5558 57.7411 80.5386 57.8225C80.5214 57.9039 80.5386 58.377 80.6571 58.6472C80.7756 58.9174 82.1635 60.4383 82.4342 60.5057C82.7049 60.5731 83.6329 60.5229 83.6329 60.5229" fill="#F2F4F7"/>
<path d="M35.4172 50.447C32.7701 50.447 19.8498 49.8061 18.1874 37.4489C17.3543 31.2528 19.3319 26.0855 23.6141 23.2713C28.5599 20.021 35.7013 20.5856 42.7178 24.7827C42.9624 24.9289 43.1369 25.168 43.2006 25.4452C43.2649 25.7224 43.2133 26.0136 43.0579 26.2521C42.9974 26.3455 36.9522 35.8148 36.8803 49.3979C36.8771 49.9517 36.4427 50.4076 35.8892 50.4381C35.8733 50.4387 35.7064 50.4464 35.4172 50.4464V50.447ZM31.0427 23.272C28.6924 23.272 26.551 23.8506 24.7689 25.0218C21.1867 27.3756 19.546 31.8041 20.2682 37.1704C21.623 47.2437 31.586 48.2839 34.7987 48.3551C35.0949 37.0273 39.1949 28.7712 40.7318 26.0594C37.3701 24.2104 34.0376 23.272 31.0433 23.272H31.0427Z" fill="#003B5B"/>
<path d="M36.3693 43.5172C36.3368 43.5172 36.305 43.5159 36.2718 43.5127C36.0655 43.4936 31.1935 43.0161 29.0808 40.0678C28.1458 38.7631 27.8865 37.213 28.3107 35.4607C28.7311 33.7255 29.6687 32.4602 31.0967 31.6991C34.3655 29.9583 39.033 31.6426 39.2304 31.7157C39.7744 31.916 40.0527 32.5181 39.8521 33.0611C39.6514 33.6041 39.0483 33.8819 38.5043 33.6816C38.4661 33.6676 34.5145 32.2498 32.0808 33.55C31.1942 34.0237 30.6279 34.8102 30.3509 35.9534C30.0725 37.1011 30.2145 38.0472 30.7846 38.8451C32.3343 41.0139 36.4234 41.4228 36.4648 41.4266C37.0413 41.4813 37.4655 41.9912 37.412 42.5666C37.361 43.1096 36.905 43.5172 36.3693 43.5172Z" fill="#003B5B"/>
<path d="M93.7723 19.7934C93.4462 19.7934 93.1354 19.6414 92.936 19.3782C92.88 19.3051 86.8704 11.749 71.3151 12.2888C70.9737 12.2939 70.647 12.1451 70.4406 11.8723C70.2349 11.5995 70.175 11.2435 70.2801 10.9186C70.3629 10.6643 72.3642 4.66019 77.8692 1.87211C81.1807 0.194812 85.0157 0.0536592 89.2666 1.4531C89.2927 1.46137 89.3182 1.47091 89.343 1.48172C92.2042 2.67706 94.194 4.59851 95.257 7.1933C97.4602 12.5704 94.8519 18.8848 94.7398 19.1512C94.5946 19.4965 94.2755 19.7381 93.9035 19.7845C93.8596 19.7902 93.8163 19.7927 93.7723 19.7927V19.7934ZM72.9272 10.1658C84.6074 10.1658 90.8653 14.5065 93.3398 16.777C94.2717 13.5681 95.4685 6.34067 88.5704 3.43114C84.8921 2.22881 81.617 2.33054 78.8342 3.7338C75.6113 5.35959 73.7412 8.38801 72.8731 10.1658H72.9272Z" fill="#003B5B"/>
<path d="M87.7938 15.3941C87.6945 15.3941 87.5938 15.3801 87.4938 15.3503C86.9384 15.1849 86.6225 14.6013 86.7881 14.0468C86.8276 13.9114 87.748 10.6509 85.3735 9.70416C81.7155 8.24559 79.7002 11.9391 79.6162 12.0968C79.3448 12.6061 78.7117 12.8025 78.1996 12.5348C77.6882 12.2659 77.4894 11.6371 77.7563 11.1252C78.7601 9.20314 81.806 6.0253 86.1518 7.75855C89.4773 9.08424 89.3378 12.8432 88.7996 14.6458C88.6639 15.1004 88.2461 15.3941 87.7945 15.3941H87.7938Z" fill="#003B5B"/>
<path d="M68.9476 78.3824C46.0674 78.3831 38.2949 62.0831 35.8751 54.1799C35.0732 51.5603 34.7923 48.8084 35.0395 46.0013C36.2414 32.3731 39.0516 24.3745 51.7719 15.7807C65.1724 6.72659 87.9888 9.50195 94.6047 18.1078L94.6595 18.179C100.937 26.3449 109.535 37.5277 111.397 43.2425C112.441 46.4464 111.676 52.9025 108.194 59.0439C104.689 65.2247 97.271 73.3359 81.8373 76.8781C77.0819 77.9202 72.7998 78.3824 68.9476 78.3824ZM71.9896 12.2849C65.3686 12.2849 58.4298 13.8128 52.9489 17.5158C40.9318 25.6347 38.2732 33.2295 37.1312 46.1851C36.907 48.7226 37.1605 51.2068 37.8828 53.5676C40.5394 62.2459 50.0967 81.6887 81.3774 74.8339C96.0563 71.4647 103.07 63.8259 106.368 58.0113C109.9 51.7816 110.103 46.0439 109.401 43.8904C107.651 38.5177 98.8308 27.0455 92.9945 19.4545L92.9398 19.3833C89.7449 15.2275 81.1749 12.2849 71.9896 12.2849Z" fill="#003B5B"/>
<path d="M60.1986 48.8657C59.2241 46.9042 58.9731 44.4327 60.2973 42.5145C61.7553 40.4563 64.9425 40.5638 66.8973 41.5862C68.196 42.2461 69.2807 43.2151 69.9699 44.434C68.7036 43.8713 67.5043 43.404 66.324 43.1306C61.2986 42.0827 60.9043 44.6152 60.1986 48.865V48.8657Z" fill="#003B5B"/>
<path d="M87.0455 38.3435C86.1391 35.8224 87.8047 32.8264 90.5175 32.4081C93.0627 31.8435 95.7951 33.6727 96.4302 36.1092C94.627 35.027 92.9493 34.0771 90.9168 34.4643C88.8773 34.8242 87.8965 36.4462 87.0455 38.3435Z" fill="#003B5B"/>
<path d="M84.7277 50.2493C84.6902 50.2493 84.6519 50.2474 84.6144 50.2429C78.8061 49.6134 78.5845 48.268 78.501 47.7619C78.3482 46.8324 79.1558 46.1756 79.4214 45.9594C80.5494 45.0425 84.3335 43.1904 85.6761 43.7048C85.9341 43.8039 86.3978 44.0767 86.6054 44.7958C86.9901 46.1298 86.3366 48.806 85.5672 49.8296C85.3679 50.0954 85.0558 50.2486 84.7277 50.2486V50.2493ZM80.9857 47.3925C81.6832 47.6379 82.8902 47.9012 84.1462 48.0748C84.4131 47.4001 84.6175 46.3771 84.6277 45.7699C83.6691 46.0058 81.8672 46.7929 80.9857 47.3932V47.3925Z" fill="#003B5B"/>
<path d="M79.7175 55.7669C78.2379 55.7669 76.8443 55.3167 75.6418 54.4285C75.1762 54.0845 75.0774 53.4283 75.4227 52.9629C75.7673 52.4981 76.4246 52.4002 76.8908 52.7442C78.0679 53.614 79.4462 53.8766 80.9876 53.525C82.943 53.0786 84.4322 51.8 84.7067 51.3912C84.7099 51.0961 84.3443 50.3802 83.922 49.8728C83.5519 49.4284 83.6118 48.7684 84.0557 48.3983C84.4997 48.0283 85.1596 48.0862 85.5315 48.5287C85.7927 48.8396 87.078 50.4629 86.7468 51.9113C86.5016 52.9839 84.6366 54.4717 82.5901 55.2283C81.6156 55.5882 80.6494 55.7669 79.7169 55.7669H79.7175Z" fill="#003B5B"/>
<path d="M86.9722 52.8593C86.1308 52.8593 85.5136 52.7061 85.462 52.6927C84.9009 52.5484 84.5626 51.9774 84.7072 51.4172C84.8512 50.8584 85.4212 50.5207 85.9811 50.6625C86.0142 50.6708 87.7187 51.0733 88.832 50.2473C89.4887 49.7603 89.8537 48.8841 89.9161 47.6436C89.9448 47.0657 90.4403 46.6181 91.0167 46.6498C91.5957 46.6791 92.0416 47.1712 92.0123 47.7485C91.9161 49.6528 91.2626 51.0637 90.0683 51.9405C89.0639 52.6781 87.8862 52.8593 86.9728 52.8593H86.9722Z" fill="#003B5B"/>
<path d="M84.1436 62.4793C83.7964 62.4793 83.4595 62.4589 83.141 62.4316C79.0716 62.0787 78.4073 57.1772 78.6245 54.6352C78.6735 54.0585 79.1818 53.6299 79.7595 53.6808C80.3366 53.7297 80.7646 54.2365 80.7162 54.8119C80.7117 54.8685 80.3181 60.0841 83.3225 60.3448C84.7092 60.4644 85.5576 60.3029 86.069 59.8184C87.0365 58.9034 87.3977 56.3938 87.2416 51.6811C87.2225 51.1032 87.6767 50.6187 88.2556 50.5996C88.8435 50.5761 89.32 51.0339 89.3391 51.6118C89.5263 57.2655 89.0314 59.9023 87.5123 61.3393C86.5416 62.2574 85.292 62.4806 84.1429 62.4806L84.1436 62.4793Z" fill="#003B5B"/>
<path d="M87.7824 59.9074C87.4493 59.9074 87.1213 59.7491 86.9174 59.4547C85.0805 56.7982 80.1207 58.1958 80.0703 58.2097C79.5143 58.3706 78.9321 58.0514 78.7697 57.497C78.6079 56.9419 78.9258 56.3614 79.4812 56.1986C79.7436 56.1217 85.9455 54.3598 88.6448 58.2644C88.9741 58.7407 88.8544 59.393 88.3773 59.7217C88.1951 59.847 87.9875 59.9074 87.7824 59.9074Z" fill="#003B5B"/>
<path d="M66.9234 175.189C75.1386 183.649 92.0226 176.965 95.1468 164.396C96.057 160.868 96.1875 156.773 96.1767 154.484C94.8372 150.337 91.6933 143.675 84.8118 140.573C74.6431 135.991 65.1947 143.458 64.7973 143.777C63.8578 144.838 63.0024 146.008 62.2483 147.274C61.6967 150.909 59.6215 167.669 66.9234 175.188V175.189ZM68.4711 150.399C68.4788 150.385 68.4832 150.37 68.4928 150.357C68.4973 150.352 68.5036 150.349 68.5087 150.344C70.7992 147.019 74.1877 144.858 77.9558 144.696C77.9583 144.696 77.9603 144.694 77.9628 144.694C77.9647 144.694 77.966 144.695 77.9673 144.695C78.2099 144.685 78.4532 144.681 78.6985 144.688C82.5335 144.791 85.9214 146.953 88.1774 150.28C88.1952 150.298 88.2131 150.316 88.2264 150.34C88.2309 150.348 88.2315 150.357 88.2354 150.366C90.0895 153.14 91.1627 156.71 91.0583 160.576C91.0532 160.772 91.0417 160.966 91.0302 161.16C91.0302 161.165 91.0322 161.17 91.0315 161.175C91.0315 161.179 91.0296 161.182 91.029 161.186C90.7666 165.623 88.9787 169.544 86.3169 172.202C86.3124 172.208 86.3105 172.216 86.3054 172.221C86.2946 172.234 86.2812 172.239 86.2698 172.249C83.9698 174.523 81.0284 175.86 77.8564 175.775C77.5131 175.766 77.1749 175.735 76.8399 175.694C76.8361 175.694 76.8329 175.696 76.8291 175.696C76.824 175.696 76.8182 175.696 76.8131 175.695C76.8061 175.694 76.801 175.69 76.794 175.688C73.1335 175.219 69.9609 172.869 67.9164 169.46C67.9068 169.449 67.8947 169.442 67.8871 169.428C67.8807 169.417 67.8794 169.404 67.8743 169.391C66.3852 166.88 65.5075 163.803 65.4935 160.486C65.4935 160.48 65.4909 160.475 65.4909 160.469C65.4909 160.464 65.4928 160.461 65.4935 160.456C65.4935 160.266 65.4915 160.077 65.4973 159.886C65.5947 156.282 66.7011 152.991 68.4711 150.398V150.399Z" fill="#0077B6"/>
<path d="M74.4079 161.03C74.5347 160.224 74.8066 158.872 75.2856 158.223C75.992 157.264 76.0385 162.401 78.6608 162.095C80.8461 161.84 81.8633 159.991 82.1423 159.38C82.0569 158.77 81.8735 158.2 81.6142 157.692C81.1353 157.168 80.334 156.508 79.1639 156.228C77.499 155.829 75.7977 156.913 75.1767 157.368C74.6914 158.139 74.3882 159.089 74.3601 160.126C74.3519 160.435 74.3697 160.736 74.4086 161.03H74.4079Z" fill="#D0D5DD"/>
<path d="M95.1467 164.396C92.0225 176.965 75.1385 183.649 66.9233 175.189C59.6214 167.67 61.6966 150.909 62.2481 147.275C60.0571 150.956 58.7119 155.433 58.5806 160.283C58.2316 173.161 66.5621 183.869 77.15 184.155C87.7378 184.441 96.6358 174.197 96.9842 161.32C97.0339 159.496 96.9034 157.718 96.6225 156.005C96.5034 155.553 96.3556 155.042 96.1753 154.485C96.1862 156.774 96.0556 160.869 95.1454 164.397L95.1467 164.396Z" fill="#0077B6"/>
<g opacity="0.2">
<path d="M95.1467 164.396C92.0225 176.965 75.1385 183.649 66.9233 175.189C59.6214 167.67 61.6966 150.909 62.2481 147.275C60.0571 150.956 58.7119 155.433 58.5806 160.283C58.2316 173.161 66.5621 183.869 77.15 184.155C87.7378 184.441 96.6358 174.197 96.9842 161.32C97.0339 159.496 96.9034 157.718 96.6225 156.005C96.5034 155.553 96.3556 155.042 96.1753 154.485C96.1862 156.774 96.0556 160.869 95.1454 164.397L95.1467 164.396Z" fill="#004F79"/>
</g>
<path d="M84.8116 140.574C91.6931 143.675 94.8371 150.338 96.1766 154.485C96.1753 154.235 96.1727 154.005 96.1689 153.802C93.8454 144.52 86.8492 137.677 78.4155 137.449C73.1882 137.308 68.3754 139.737 64.7971 143.778C65.1939 143.459 74.6429 135.992 84.8116 140.575V140.574Z" fill="#0077B6"/>
<g opacity="0.4">
<path d="M84.8116 140.574C91.6931 143.675 94.8371 150.338 96.1766 154.485C96.1753 154.235 96.1727 154.005 96.1689 153.802C93.8454 144.52 86.8492 137.677 78.4155 137.449C73.1882 137.308 68.3754 139.737 64.7971 143.778C65.1939 143.459 74.6429 135.992 84.8116 140.575V140.574Z" fill="#EBF8FF"/>
</g>
<path d="M96.623 156.004C96.5007 155.256 96.3485 154.522 96.1682 153.802C96.172 154.005 96.1746 154.235 96.1759 154.484C96.3555 155.041 96.5032 155.553 96.623 156.004Z" fill="#0077B6"/>
<g opacity="0.3">
<path d="M96.623 156.004C96.5007 155.256 96.3485 154.522 96.1682 153.802C96.172 154.005 96.1746 154.235 96.1759 154.484C96.3555 155.041 96.5032 155.553 96.623 156.004Z" fill="#00283D"/>
</g>
<g opacity="0.4">
<path d="M96.623 156.004C96.5007 155.256 96.3485 154.522 96.1682 153.802C96.172 154.005 96.1746 154.235 96.1759 154.484C96.3555 155.041 96.5032 155.553 96.623 156.004Z" fill="#EBF8FF"/>
</g>
<path d="M78.6608 162.095C76.0385 162.4 75.9927 157.264 75.2857 158.223C74.8073 158.872 74.5347 160.224 74.408 161.03C74.6965 163.237 76.2417 164.944 78.1481 164.996C80.3086 165.054 82.1238 162.965 82.1945 160.337C82.2035 160.011 82.185 159.691 82.141 159.38C81.8621 159.991 80.8449 161.84 78.6595 162.095H78.6608Z" fill="#D0D5DD"/>
<g opacity="0.3">
<path d="M78.6608 162.095C76.0385 162.4 75.9927 157.264 75.2857 158.223C74.8073 158.872 74.5347 160.224 74.408 161.03C74.6965 163.237 76.2417 164.944 78.1481 164.996C80.3086 165.054 82.1238 162.965 82.1945 160.337C82.2035 160.011 82.185 159.691 82.141 159.38C81.8621 159.991 80.8449 161.84 78.6595 162.095H78.6608Z" fill="#00283D"/>
</g>
<path d="M79.1634 156.229C80.3328 156.51 81.1347 157.168 81.6137 157.693C80.9462 156.388 79.7685 155.504 78.4067 155.468C77.099 155.432 75.9207 156.187 75.1768 157.369C75.7971 156.914 77.499 155.829 79.164 156.229H79.1634Z" fill="#D0D5DD"/>
<g opacity="0.4">
<path d="M79.1634 156.229C80.3328 156.51 81.1347 157.168 81.6137 157.693C80.9462 156.388 79.7685 155.504 78.4067 155.468C77.099 155.432 75.9207 156.187 75.1768 157.369C75.7971 156.914 77.499 155.829 79.164 156.229H79.1634Z" fill="#EBF8FF"/>
</g>
<path d="M78.1462 176.536C78.043 176.536 77.9398 176.535 77.836 176.532C74.1659 176.433 70.7755 174.617 68.2883 171.42C65.8488 168.284 64.5704 164.181 64.687 159.866C64.9303 150.878 71.2233 143.727 78.7188 143.933C86.2124 144.135 92.111 151.612 91.8677 160.599C91.6276 169.462 85.5022 176.536 78.1462 176.536ZM78.4079 146.023C72.1831 146.023 66.9953 152.194 66.7857 159.922C66.6819 163.754 67.8042 167.381 69.9469 170.135C72.0411 172.827 74.8634 174.355 77.8933 174.437C84.2315 174.601 89.5582 168.374 89.7703 160.541C89.9824 152.709 84.9996 146.197 78.6627 146.026C78.578 146.024 78.4927 146.022 78.4086 146.022L78.4079 146.023Z" fill="#003B5B"/>
<path d="M78.2335 166.337C78.1928 166.337 78.1533 166.337 78.1125 166.336C75.2418 166.258 72.9801 163.457 73.0718 160.092C73.1151 158.5 73.6724 157.008 74.6425 155.892C75.6635 154.716 77.0144 154.087 78.4437 154.129C79.8737 154.168 81.1883 154.865 82.1437 156.094C83.0513 157.261 83.5278 158.781 83.4845 160.372C83.3947 163.69 81.0507 166.336 78.2342 166.336L78.2335 166.337ZM78.3208 156.222C77.5533 156.222 76.8125 156.59 76.2272 157.264C75.575 158.015 75.1992 159.039 75.1686 160.148C75.1087 162.359 76.4546 164.194 78.1679 164.241C79.873 164.293 81.3246 162.526 81.3845 160.316C81.4144 159.207 81.0947 158.163 80.4838 157.378C79.9208 156.654 79.1756 156.244 78.3851 156.223C78.3635 156.223 78.3418 156.222 78.3202 156.222H78.3208Z" fill="#003B5B"/>
<path d="M86.1416 173.06C85.8295 173.06 85.5212 172.922 85.3142 172.658L79.506 165.247C79.1486 164.792 79.2295 164.133 79.6856 163.776C80.1423 163.42 80.8015 163.501 81.1588 163.956L86.9671 171.367C87.3244 171.822 87.2435 172.481 86.7874 172.838C86.5951 172.987 86.3677 173.06 86.1416 173.06Z" fill="#003B5B"/>
<path d="M90.7945 162.201C90.7607 162.201 90.7264 162.199 90.692 162.196L82.334 161.387C81.757 161.331 81.3347 160.819 81.3907 160.243C81.4468 159.667 81.9627 159.25 82.5366 159.302L90.8945 160.11C91.4716 160.166 91.8939 160.679 91.8378 161.254C91.7849 161.796 91.3283 162.201 90.7945 162.201Z" fill="#003B5B"/>
<path d="M80.9029 157.323C80.5978 157.323 80.2946 157.191 80.0876 156.936C79.7227 156.486 79.7908 155.827 80.2411 155.462L87.3653 149.689C87.815 149.324 88.4761 149.393 88.8417 149.842C89.2067 150.291 89.1385 150.951 88.6882 151.316L81.5641 157.089C81.3698 157.247 81.1354 157.324 80.9036 157.324L80.9029 157.323Z" fill="#003B5B"/>
<path d="M77.9348 156.245H77.9322C77.3526 156.244 76.8838 155.773 76.8857 155.195L76.9131 144.983C76.9144 144.406 77.3845 143.939 77.9628 143.939H77.9654C78.545 143.94 79.0138 144.411 79.0119 144.989L78.9845 155.201C78.9832 155.778 78.5131 156.245 77.9348 156.245Z" fill="#003B5B"/>
<path d="M74.7264 158.695C74.4296 158.695 74.1354 158.57 73.9277 158.327L67.8666 151.239C67.4902 150.799 67.5424 150.137 67.9838 149.762C68.4246 149.387 69.087 149.438 69.4634 149.879L75.5245 156.967C75.901 157.407 75.8487 158.069 75.4073 158.444C75.2099 158.613 74.9678 158.695 74.7264 158.695Z" fill="#003B5B"/>
<path d="M74.1335 161.751C74.1239 161.751 74.1143 161.751 74.1048 161.751L65.7023 161.524C65.1227 161.509 64.666 161.027 64.6813 160.449C64.6966 159.871 65.1787 159.414 65.7583 159.43L74.1608 159.656C74.7405 159.672 75.1971 160.154 75.1819 160.732C75.1666 161.301 74.6997 161.751 74.1335 161.751Z" fill="#003B5B"/>
<path d="M68.0864 170.311C67.7858 170.311 67.4871 170.183 67.2794 169.934C66.9087 169.49 66.9686 168.829 67.4145 168.459L74.3838 162.664C74.8291 162.294 75.4915 162.355 75.8622 162.799C76.2329 163.243 76.173 163.904 75.7271 164.274L68.7578 170.069C68.5616 170.231 68.3234 170.311 68.0871 170.311L68.0864 170.311Z" fill="#003B5B"/>
<path d="M76.838 176.453C76.8093 176.453 76.7807 176.452 76.752 176.449C76.1743 176.403 75.7437 175.897 75.7909 175.32L76.617 165.156C76.6641 164.579 77.1686 164.147 77.7482 164.196C78.3259 164.243 78.7565 164.748 78.7093 165.325L77.8832 175.49C77.8386 176.038 77.3794 176.453 76.838 176.453Z" fill="#003B5B"/>
<path d="M77.5793 185.5C77.4239 185.5 77.2698 185.498 77.1143 185.494C65.8157 185.188 56.924 173.863 57.2928 160.248C57.6616 146.633 67.1507 135.789 78.4519 136.109C89.7506 136.415 98.6422 147.74 98.2735 161.355C97.9098 174.782 88.6716 185.5 77.5793 185.5ZM77.985 138.199C68.0246 138.199 59.7234 148.013 59.3902 160.306C59.0527 172.766 67.0291 183.126 77.171 183.4C77.308 183.404 77.4443 183.406 77.5806 183.406C87.541 183.406 95.8423 173.591 96.1754 161.299C96.513 148.838 88.5366 138.478 78.3952 138.204C78.2583 138.201 78.122 138.199 77.9857 138.199H77.985Z" fill="#003B5B"/>
<path d="M75.8635 156.298C74.8928 156.281 73.5788 156.25 72.1973 156.193L76.2456 161.301C76.6011 161.544 77.5469 162.059 78.1093 161.795C78.5323 161.596 78.687 160.953 78.738 160.391L75.8635 156.298Z" fill="#D0D5DD"/>
<path d="M65.5787 154.558C65.959 154.815 68.2762 155.04 71.1392 155.188C71.1755 155.186 71.2118 155.188 71.2475 155.194C72.7621 155.27 74.4233 155.325 76.0284 155.352C76.9577 154.988 77.5124 154.476 77.6793 153.83C77.9487 152.785 77.178 151.499 76.7443 150.939C71.557 150.293 65.6291 149.951 64.9596 150.52C64.6227 150.806 64.5456 151.303 64.5399 151.669C64.5227 152.827 65.1533 154.175 65.5775 154.558H65.5787Z" fill="#D0D5DD"/>
<g opacity="0.35">
<path d="M65.5787 154.558C65.959 154.815 68.2762 155.04 71.1392 155.188C71.1755 155.186 71.2118 155.188 71.2475 155.194C72.7621 155.27 74.4233 155.325 76.0284 155.352C76.9577 154.988 77.5124 154.476 77.6793 153.83C77.9487 152.785 77.178 151.499 76.7443 150.939C71.557 150.293 65.6291 149.951 64.9596 150.52C64.6227 150.806 64.5456 151.303 64.5399 151.669C64.5227 152.827 65.1533 154.175 65.5775 154.558H65.5787Z" fill="#003B5B"/>
</g>
<path d="M77.7531 163.388C76.5569 163.388 75.4461 162.605 75.2932 162.492C75.2181 162.436 75.1499 162.371 75.0919 162.298L70.6525 156.697C65.3493 156.404 64.7761 155.885 64.5557 155.686C63.6856 154.9 62.9952 153.087 63.0169 151.646C63.0315 150.67 63.3621 149.879 63.9723 149.361C64.5105 148.902 65.5703 148.449 71.3722 148.879C74.2939 149.095 77.0983 149.448 77.1263 149.451C77.3849 149.484 77.6212 149.611 77.7906 149.808C77.9875 150.037 79.6983 152.107 79.1569 154.208C79.0021 154.809 78.6117 155.576 77.6658 156.211L80.0836 159.655C80.2199 159.849 80.2862 160.083 80.2715 160.32C80.183 161.783 79.6722 162.743 78.7543 163.172C78.4263 163.326 78.0862 163.387 77.7531 163.387V163.388ZM76.641 160.875C77.0932 161.17 77.6741 161.365 77.8645 161.276C77.9238 161.248 78.0684 161.062 78.1422 160.541L75.5607 156.865C74.7945 156.851 74.0818 156.833 73.4206 156.813L76.6403 160.875H76.641ZM71.2639 154.617C72.7576 154.694 74.3862 154.749 75.9225 154.776C76.6079 154.49 77.0117 154.123 77.1244 153.687C77.3117 152.961 76.7811 151.994 76.4257 151.476C71.7302 150.903 66.3086 150.564 65.3009 150.987C65.1474 151.156 65.1187 151.487 65.1156 151.677C65.1016 152.596 65.5914 153.709 65.9054 154.072C66.499 154.289 68.6372 154.482 71.1824 154.614C71.2098 154.614 71.2365 154.615 71.2639 154.617Z" fill="#003B5B"/>
<path d="M53.9234 104.826C52.8508 104.898 50.505 105.221 49.2012 106.661C48.4464 107.495 48.1464 108.606 48.3095 109.964C48.9133 114.993 52.8642 118.186 55.5247 119.023C54.3935 116.597 53.519 113.962 53.398 111.451C53.3018 109.456 53.5317 107.15 53.9241 104.826H53.9234Z" fill="#2A8EC2"/>
<path d="M69.7678 112.816C61.2258 113.301 58.6048 119.114 57.8901 121.467C59.3462 123.991 60.8716 126.05 61.6621 127.064C61.8532 127.275 62.0277 127.5 62.1952 127.731C62.2003 127.738 62.2092 127.748 62.2105 127.75C62.213 127.753 62.2143 127.757 62.2169 127.76C62.4863 128.134 62.7423 128.518 63.0239 128.883C63.5073 129.499 64.0003 130.108 64.5118 130.704C65.0226 131.3 65.5646 131.868 66.1334 132.418C66.1525 132.436 66.1538 132.467 66.1353 132.486C66.1194 132.503 66.0933 132.505 66.0742 132.493C65.4073 132.057 64.7856 131.554 64.1748 131.038C63.5748 130.51 63.0009 129.954 62.4481 129.378C62.2595 129.18 62.0665 128.986 61.8748 128.789C61.1111 129.815 59.2761 132.587 59.0029 135.842C58.7857 138.428 59.6041 145.427 63.4513 149.378C65.3296 151.308 67.6678 152.213 70.4009 152.061C73.4525 151.894 75.5079 151.012 76.511 149.438C77.7015 147.571 77.0792 145.205 76.8403 144.473C76.8187 144.476 76.797 144.48 76.7754 144.483C76.4454 144.544 76.1066 144.534 75.776 144.535C75.4442 144.491 75.1155 144.465 74.8021 144.362C74.1671 144.199 73.5983 143.882 73.0767 143.534C73.055 143.519 73.0486 143.49 73.0633 143.468C73.0754 143.449 73.0983 143.442 73.1187 143.449L73.1232 143.451L73.5627 143.603C73.7085 143.651 73.8461 143.72 73.9983 143.744C74.297 143.809 74.5869 143.888 74.8875 143.895C75.4779 143.961 76.0677 143.899 76.6193 143.739C76.8645 143.669 77.0919 143.565 77.3155 143.453C87.083 137.896 84.253 124.499 84.2231 124.363C84.1919 124.221 84.2263 124.074 84.3174 123.962C84.3753 123.89 84.4537 123.841 84.5403 123.812C83.4193 121.191 78.925 112.295 69.7671 112.814L69.7678 112.816Z" fill="#0077B6"/>
<path d="M60.5003 91.7017C60.4442 91.7106 60.3888 91.7233 60.3327 91.7315C59.6703 91.8263 58.9971 91.9185 58.3245 91.9223C57.5773 94.0777 54.0245 104.728 54.3468 111.405C54.5092 114.768 56.1493 118.45 57.8901 121.467C58.6047 119.114 61.2257 113.3 69.7677 112.816C78.9256 112.297 83.4199 121.194 84.5409 123.814C84.5893 123.798 84.639 123.787 84.6912 123.787C84.8498 123.788 100.601 123.821 104.748 117.848C111.763 108.058 108.292 92.457 106.583 86.4994C92.6268 99.3951 65.5652 93.0394 60.5009 91.701L60.5003 91.7017Z" fill="#EBF8FF"/>
<path d="M123.478 52.1243C122.391 50.3465 120.764 49.3731 118.889 49.3616C117.996 49.3597 116.725 49.5924 115.129 50.4756C115.29 50.5074 115.46 50.5684 115.617 50.6835C115.83 50.8342 115.999 51.0784 116.055 51.3079C116.181 51.7778 116.083 52.1535 116 52.4975C115.821 53.1893 115.501 53.7723 115.171 54.3433C114.825 54.9054 114.456 55.4433 114.061 55.9621C114.045 55.9831 114.015 55.9869 113.994 55.971C113.976 55.9577 113.971 55.9329 113.98 55.9132C114.243 55.3187 114.522 54.7362 114.743 54.1354C114.857 53.8372 114.964 53.5384 115.052 53.2389C115.143 52.9413 115.22 52.6412 115.254 52.3526C115.294 52.069 115.265 51.7727 115.171 51.6277C115.133 51.5463 115.089 51.5241 115.043 51.4872C114.999 51.4516 114.919 51.4128 114.811 51.3874C114.597 51.3244 114.298 51.32 113.994 51.3187C113.927 51.3206 113.856 51.3232 113.788 51.3257C111.42 53.0151 108.491 56.0753 105.119 61.5281C101.05 68.1069 94.5466 72.6124 85.7894 74.9204C78.7607 76.7726 71.7742 76.8005 67.15 76.4979C58.7347 75.9466 40.7062 65.9668 39.5922 65.3462C37.0865 64.3702 34.8202 63.859 32.8884 63.8069C30.3394 63.7382 28.3719 64.4688 27.1967 65.9877C25.0037 68.8216 26.0509 73.8923 29.9292 79.2205C37.2049 89.2181 57.8424 90.8834 58.0494 90.8986C58.0984 90.9024 58.1449 90.9158 58.1895 90.9336C58.8761 90.9597 59.5621 91.0131 60.2519 90.9755C61.1717 90.9336 62.0806 90.7721 62.9704 90.526C63.8678 90.2908 64.7054 89.8832 65.5213 89.4133L65.5264 89.4102C65.5494 89.3974 65.578 89.4051 65.5914 89.4273C65.6035 89.4483 65.5978 89.475 65.578 89.489C65.1971 89.7662 64.8379 90.0956 64.4118 90.3156C64.2035 90.4326 64.0022 90.5693 63.7844 90.671L63.1271 90.973C62.2825 91.3017 61.3997 91.5529 60.4997 91.6991C65.564 93.0382 92.6256 99.3938 106.582 86.4975C106.155 85.009 105.838 84.1208 105.822 84.0775C105.821 84.0756 105.821 84.0737 105.82 84.0724C105.796 84.0139 105.771 83.9554 105.747 83.8969C105.305 82.8574 105.011 81.7638 104.606 80.7077C104.211 79.6484 103.76 78.6114 103.28 77.5858C102.811 76.5538 102.267 75.5607 101.699 74.5733C101.685 74.551 101.692 74.5217 101.715 74.5078C101.735 74.495 101.763 74.5014 101.777 74.5192C102.473 75.4253 103.112 76.3796 103.701 77.3639C104.271 78.3577 104.816 79.3705 105.305 80.4088C105.748 81.3518 106.227 82.287 106.549 83.2802C108.092 82.591 113.317 79.9841 117.803 74.565C123.226 68.0135 126.143 56.4771 123.478 52.1211L123.478 52.1243Z" fill="#2A8EC2"/>
<g opacity="0.2">
<path d="M79.4365 78.9477C92.3097 77.5616 100.899 70.5288 104.04 63.1323C99.9389 68.8413 93.8135 72.8063 85.7893 74.921C78.7607 76.7732 71.7741 76.8012 67.1499 76.4985C64.7105 76.3389 61.4633 75.3858 58.0544 74.0996C60.3774 75.7184 67.9563 80.1837 79.4358 78.9477H79.4365Z" fill="#004F79"/>
</g>
<g opacity="0.2">
<path d="M74.6365 114.254C61.3028 108.26 69.5544 87.4785 69.5544 87.4785C54.1233 90.9813 37.4189 82.631 31.7291 77.5171C27.7234 73.9165 26.6502 69.8815 26.3285 67.721C25.4737 70.6528 26.7483 74.8498 29.9298 79.2211C37.2055 89.2188 57.843 90.884 58.05 90.8993C58.099 90.9031 58.1455 90.9164 58.1901 90.9342C58.8767 90.9603 59.5627 91.0137 60.2525 90.9762C61.1723 90.9342 62.0812 90.7727 62.971 90.5267C63.8684 90.2914 64.706 89.8839 65.5219 89.414L65.527 89.4108C65.5499 89.3981 65.5786 89.4057 65.592 89.428C65.6041 89.4489 65.5983 89.4757 65.5786 89.4896C65.1977 89.7669 64.8385 90.0962 64.4124 90.3162C64.2041 90.4332 64.0028 90.5699 63.785 90.6716L63.1277 90.9736C62.2302 91.3227 61.2914 91.5891 60.3321 91.7303C59.6697 91.825 60.2933 92.0895 59.6213 92.0933C58.8742 94.2488 55.7965 104.619 56.1188 111.296C56.4162 117.472 60.3022 124.7 62.0372 126.926C62.6328 127.692 63.2111 128.695 63.4926 129.427C63.7742 130.157 63.999 130.107 64.5105 130.702C65.0213 131.299 65.5633 131.867 66.1321 132.417C66.1512 132.435 66.1525 132.465 66.134 132.485C66.1181 132.502 66.092 132.504 66.0729 132.492C65.406 132.056 62.934 130.023 62.7423 129.826C61.9786 130.852 60.3633 133.814 60.0907 137.069C59.8735 139.655 61.0417 146.866 63.45 149.378C65.3136 151.321 67.6665 152.212 70.3996 152.06C73.4512 151.893 75.5066 151.011 76.5097 149.437C77.7002 147.57 77.0779 145.205 76.839 144.472C76.8174 144.476 76.7957 144.479 76.7741 144.483C76.4441 144.544 76.1053 144.533 75.7747 144.534C75.4429 144.491 75.1142 144.465 74.8008 144.362C74.1658 144.198 73.597 143.881 73.0754 143.533C73.0537 143.519 73.0473 143.489 73.062 143.467C73.0741 143.449 73.097 143.442 73.1174 143.449L73.1219 143.45L73.5614 143.603C73.7072 143.651 73.8448 143.719 73.997 143.743C74.2957 143.808 74.5856 143.887 74.8862 143.894C75.4766 143.96 76.0664 143.898 76.618 143.738C76.8632 143.669 77.0906 143.564 77.3142 143.452C87.0817 137.895 84.2517 124.498 84.2218 124.362C84.1906 124.221 84.225 124.073 84.3161 123.961C84.4072 123.849 84.5441 123.785 84.6887 123.785C84.8473 123.787 100.598 123.82 104.746 117.846C106.627 115.221 107.752 112.177 108.361 109.014C108.277 108.776 108.192 108.441 108.108 108.014C103.51 121.204 86.4059 119.544 74.634 114.252L74.6365 114.254Z" fill="#004F79"/>
</g>
<g opacity="0.2">
<path d="M55.5246 119.023C54.6239 117.091 53.8927 115.027 53.5685 112.999C51.0367 112.716 49.3558 111.682 48.4819 110.977C49.4533 115.422 53.0475 118.244 55.5246 119.023Z" fill="#004F79"/>
</g>
<g opacity="0.4">
<path d="M38.0984 69.1986C37.8392 69.123 36.4226 69.0791 36.4366 69.4269C36.4506 69.7753 38.4201 71.2943 39.4958 70.8511C40.5723 70.408 38.8487 69.4174 38.0984 69.198V69.1986Z" fill="#EBF8FF"/>
</g>
<g opacity="0.2">
<path d="M122.172 50.5818C123.652 55.8432 122.817 59.7065 118.62 67.4317C114.423 75.1569 104.532 78.8714 104.532 78.8714C104.801 79.3794 105.06 79.8925 105.305 80.4126C105.748 81.3556 106.227 82.2909 106.549 83.284C108.092 82.5948 113.317 79.9879 117.802 74.5688C123.226 68.0173 126.143 56.4809 123.478 52.1249C123.102 51.512 122.662 50.9976 122.171 50.5824L122.172 50.5818Z" fill="#004F79"/>
</g>
<g opacity="0.4">
<path d="M115.27 52.1186C115.272 51.9176 115.239 51.7333 115.171 51.629C115.133 51.5476 115.088 51.5253 115.043 51.4885C114.999 51.4529 114.919 51.4141 114.811 51.3886C114.597 51.3257 114.298 51.3212 113.994 51.32C113.927 51.3219 113.856 51.3244 113.788 51.327C111.42 53.0163 108.491 56.0766 105.118 61.5294C104.801 62.0425 104.464 62.5378 104.117 63.0255C105.75 61.0868 112.243 53.5231 115.269 52.1186H115.27Z" fill="#EBF8FF"/>
</g>
<g opacity="0.4">
<path d="M121.694 50.22C120.864 49.6643 119.914 49.368 118.889 49.3616C117.996 49.3597 116.725 49.5924 115.129 50.4756C115.29 50.5074 115.46 50.5684 115.617 50.6835C115.83 50.8342 115.999 51.0784 116.055 51.3079C116.106 51.498 116.12 51.6729 116.113 51.8363C119.158 51.0498 121.933 51.6353 121.694 50.2194V50.22Z" fill="#EBF8FF"/>
</g>
<g opacity="0.4">
<path d="M108.109 108.016C108.42 107.126 108.673 106.169 108.864 105.14C109.609 94.6818 105.877 84.2301 105.823 84.0807C105.822 84.0788 105.822 84.0769 105.822 84.0756C105.797 84.0171 105.772 83.9586 105.748 83.9001C105.306 82.8606 105.012 81.7669 104.607 80.7108C104.212 79.6516 103.761 78.6145 103.281 77.589C102.832 76.6022 102.315 75.6503 101.773 74.7055C102.294 76.475 106.219 90.0072 106.93 97.857C107.369 102.691 107.746 106.193 108.11 108.017L108.109 108.016Z" fill="#EBF8FF"/>
</g>
<g opacity="0.4">
<path d="M102.055 74.8956C102.067 74.9115 102.078 74.9274 102.091 74.9433L102.081 74.9249L102.055 74.895V74.8956Z" fill="#EBF8FF"/>
</g>
<g opacity="0.35">
<path d="M108.363 109.016C108.61 107.737 108.771 106.439 108.864 105.14C108.673 106.169 108.419 107.127 108.109 108.016C108.194 108.443 108.278 108.778 108.362 109.016L108.363 109.016Z" fill="#003B5B"/>
</g>
<g opacity="0.4">
<path d="M108.363 109.016C108.61 107.737 108.771 106.439 108.864 105.14C108.673 106.169 108.419 107.127 108.109 108.016C108.194 108.443 108.278 108.778 108.362 109.016L108.363 109.016Z" fill="#EBF8FF"/>
</g>
<g opacity="0.4">
<path d="M50.9347 106.797C52.2232 106.317 53.155 106.275 53.6971 106.317C53.7646 105.822 53.8398 105.325 53.9238 104.826C52.8512 104.898 50.5054 105.221 49.2016 106.661C48.6576 107.261 48.3538 108.009 48.2856 108.885C48.734 108.248 49.5863 107.298 50.9353 106.797H50.9347Z" fill="#EBF8FF"/>
</g>
<g opacity="0.4">
<path d="M53.1838 71.7801C46.4304 68.8133 40.24 65.3863 39.6017 65.0302C37.0954 64.0542 34.8298 63.543 32.898 63.4909C30.3489 63.4222 28.3814 64.1528 27.2063 65.6717C27.0993 65.8097 27.0025 65.9547 26.9114 66.1035C27.7566 65.7016 29.2974 65.1758 31.4763 65.2356C31.4744 65.2426 31.4712 65.2483 31.4699 65.2553C31.3088 65.9986 32.482 66.883 34.0903 67.2308C35.6285 67.5633 37.0043 67.2829 37.2629 66.6077C42.838 68.8483 50.7851 73.1102 55.5704 73.8478C60.229 74.5656 54.7513 72.8635 53.1851 71.7807L53.1838 71.7801Z" fill="#EBF8FF"/>
</g>
<path d="M74.197 116.694C69.7263 115.041 65.3506 119.387 66.8346 123.909C68.1487 127.914 70.669 133.756 74.5722 135.502C80.6938 138.239 83.9613 128.59 82.425 124.14C81.5919 121.725 77.9913 118.097 74.197 116.694Z" fill="#2A8EC2"/>
<path d="M62.2852 142.748C62.2858 143.173 62.4004 143.59 62.5953 143.968C63.4195 145.567 66.117 150.246 69.566 150.492C73.7297 150.788 75.68 147.71 74.0634 146.874C72.5946 146.114 66.466 144.569 63.4412 142.128C62.9826 141.758 62.2953 142.079 62.2858 142.668C62.2858 142.694 62.2858 142.721 62.2858 142.748H62.2852Z" fill="#0077B6"/>
<path d="M69.8105 153.601C66.9048 153.601 64.3997 152.54 62.357 150.44C58.1074 146.074 57.238 138.635 57.4832 135.716C57.7749 132.244 59.5832 129.347 60.5099 128.069C58.7252 125.805 53.1501 118.223 52.8246 111.478C52.5176 105.112 55.445 95.6908 56.5883 92.286C51.7348 91.7417 35.3521 89.2614 28.6961 80.1157C24.3904 74.1994 23.3515 68.6067 25.9165 65.1548C28.2388 62.031 33.0266 61.4372 39.0521 63.5252C39.7317 63.7611 40.4253 64.0695 41.1126 64.4433C44.1966 66.1187 59.95 74.502 67.2506 74.9795C75.271 75.5047 94.8932 75.1671 103.822 60.7295C110.408 50.0801 115.641 47.8395 118.876 47.8395H118.893C121.315 47.8452 123.405 49.0851 124.78 51.3308C128.039 56.6558 124.314 69.0918 118.979 75.5372C114.583 80.8482 109.606 83.5434 107.575 84.4927C109.006 88.8735 114.247 107.207 105.992 118.728C102.085 124.356 89.8995 125.174 85.9257 125.291C86.1244 126.739 86.3378 129.288 85.9684 132.168C85.2531 137.741 82.6607 142.005 78.4518 144.556C78.7748 145.816 79.1053 148.198 77.8015 150.249C76.5206 152.265 74.0589 153.386 70.4844 153.581C70.2583 153.594 70.0334 153.6 69.8118 153.6L69.8105 153.601ZM32.5712 64.3797C30.3209 64.3797 28.6018 65.0594 27.6025 66.4036C25.6413 69.0416 26.7114 73.8236 30.3942 78.8841C37.512 88.6643 57.8889 90.3124 58.0934 90.3276C58.4208 90.3524 58.7176 90.5286 58.8953 90.8032C59.0736 91.0785 59.1131 91.4206 59.0016 91.7284C58.9571 91.8511 54.5685 104.073 54.9208 111.377C55.266 118.533 62.5761 127.292 62.65 127.38C62.9812 127.772 62.9781 128.347 62.6424 128.737C62.6163 128.768 59.9023 131.978 59.5742 135.89C59.3641 138.394 60.152 145.167 63.8621 148.979C65.6194 150.784 67.8073 151.629 70.3685 151.489C73.227 151.332 75.1315 150.537 76.0283 149.127C77.2716 147.17 76.2372 144.483 76.2264 144.456C76.0245 143.96 76.2308 143.392 76.7041 143.139C86.4881 137.914 83.6926 124.62 83.6633 124.487C83.5951 124.176 83.6722 123.85 83.8728 123.602C84.0735 123.355 84.3735 123.203 84.6951 123.214C84.8518 123.218 100.302 123.246 104.277 117.521C112.866 105.533 105.361 84.4857 105.284 84.2746C105.088 83.7373 105.36 83.1422 105.895 82.9381C105.956 82.9146 112.164 80.48 117.361 74.2013C122.556 67.9257 125.501 56.5267 122.989 52.4218C122.296 51.2894 121.022 49.9383 118.888 49.9332H118.876C116.663 49.9332 112.006 51.4834 105.608 61.8288C101.459 68.5368 94.8409 73.1274 85.9359 75.4742C78.8327 77.3461 71.7793 77.3747 67.1131 77.0695C59.5685 76.5761 44.5368 68.6887 40.1094 66.2828C39.5228 65.9642 38.9355 65.7016 38.3642 65.5039C36.1948 64.7517 34.2375 64.3791 32.5712 64.3791V64.3797Z" fill="#003B5B"/>
<path d="M56.3888 120.745C56.3506 120.745 56.3117 120.743 56.2729 120.738C52.8742 120.366 47.5436 116.379 46.7952 110.145C46.5774 108.329 47.0073 106.812 48.0729 105.637C50.2583 103.227 54.343 103.283 54.5175 103.283C55.0971 103.295 55.5576 103.773 55.5455 104.351C55.534 104.923 55.0665 105.378 54.4971 105.378C54.4882 105.378 54.5047 105.378 54.4557 105.378C54.164 105.378 51.0971 105.419 49.6258 107.048C48.9799 107.763 48.736 108.695 48.8806 109.896C49.5137 115.168 54.1793 118.401 56.5035 118.656C57.0799 118.719 57.4952 119.237 57.4321 119.811C57.3729 120.348 56.9187 120.745 56.3901 120.745H56.3888Z" fill="#003B5B"/>
<path d="M112.955 51.2113C114.152 48.8441 117.494 49.8563 116.451 52.5853C116.208 53.3445 115.826 53.9116 115.429 54.4692C115.02 55.0141 114.583 55.5183 114.11 55.992C114.036 56.0709 113.896 55.9888 113.93 55.8858C114.091 55.2532 115.226 52.0893 114.636 51.8217C114.608 51.8299 114.64 51.9437 114.696 51.9749C114.728 51.9933 114.737 52.0003 114.754 51.9927C114.75 51.9908 114.757 51.9692 114.728 51.9558C114.319 51.704 113.617 51.6385 113.042 51.4014C112.962 51.3779 112.919 51.2876 112.954 51.2113H112.955Z" fill="#003B5B"/>
<path d="M54.7023 90.8725C56.2099 90.4198 57.4239 90.2443 58.8685 90.3969C59.9641 90.5915 61.1144 90.5292 62.2099 90.3709C63.3551 90.2253 64.4112 89.8673 65.4882 89.3688C65.5417 89.3402 65.6099 89.3624 65.6354 89.4184C65.6545 89.4597 65.6443 89.5074 65.6131 89.5373C64.2322 90.938 62.315 91.818 60.3813 92.1874C59.8902 92.2758 59.3953 92.4023 58.8953 92.471C57.8857 92.6312 56.8749 92.3947 55.9533 91.9744C55.766 91.9045 54.2692 91.0715 54.7023 90.8719V90.8725Z" fill="#003B5B"/>
<path d="M59.9169 125.331C61.1163 125.767 62.1373 126.491 62.78 127.567C63.322 128.612 64.0411 129.541 64.715 130.502C65.1742 131.139 65.659 131.756 66.1698 132.376C66.436 133.042 64.1348 131.341 63.9711 131.242C63.3201 130.754 62.6965 130.231 62.0997 129.679C61.8055 129.401 61.4787 129.148 61.1698 128.879C60.5361 128.333 60.1685 127.589 59.924 126.793C59.8061 126.382 59.7227 125.948 59.7431 125.45C59.7456 125.364 59.8354 125.302 59.9163 125.332L59.9169 125.331Z" fill="#003B5B"/>
<path d="M79.939 142.313C79.9314 143.482 79.104 144.553 77.9798 144.804C76.5779 145.085 75.0423 144.998 73.8314 144.19C73.5448 144.018 73.297 143.786 73.0486 143.585C72.9633 143.52 73.0314 143.375 73.1359 143.4C73.4161 143.444 73.7868 143.554 74.0633 143.576C75.0231 143.69 76.0575 143.599 76.8766 143.111C77.7696 142.418 78.4906 142.303 79.7779 142.18C79.8601 142.167 79.9384 142.229 79.9397 142.313H79.939Z" fill="#003B5B"/>
<path d="M107.122 87.0233C106.264 86.0873 105.705 85.0999 105.206 84.0902C104.689 83.085 104.542 81.9513 104.184 80.8908C103.836 79.8544 103.429 78.736 103.027 77.7225C102.619 76.6683 102.145 75.6446 101.652 74.6082C101.626 74.5554 101.647 74.49 101.701 74.4652C101.745 74.4448 101.795 74.4562 101.826 74.4899C102.598 75.347 103.306 76.2715 103.955 77.2335C104.419 77.9304 104.909 78.7264 105.316 79.4646C105.711 80.2155 106.164 81.0249 106.569 81.7669C107.129 82.8065 107.366 83.9624 107.445 85.1374C107.461 85.3549 107.515 87.3545 107.122 87.0239V87.0233Z" fill="#003B5B"/>
<g opacity="0.4">
<path d="M79.7949 132.652C79.8808 132.038 78.5511 131.345 76.8248 131.104C75.0985 130.863 73.6294 131.166 73.5435 131.78C73.4576 132.395 74.7874 133.088 76.5136 133.328C78.2399 133.569 79.709 133.266 79.7949 132.652Z" fill="#EBF8FF"/>
</g>
</g>
<path d="M18.3459 224.404H10.6179V236.5H4.47394V201.412H18.3459C25.4019 201.412 29.9619 206.02 29.9619 212.884C29.9619 219.652 25.3539 224.404 18.3459 224.404ZM17.1459 206.884H10.6179V218.932H17.0499C21.2739 218.932 23.5299 216.676 23.5299 212.836C23.5299 208.996 21.2259 206.884 17.1459 206.884ZM31.7023 224.596C31.7023 217.204 37.0303 212.116 44.3743 212.116C51.7183 212.116 57.0463 217.204 57.0463 224.596C57.0463 231.988 51.7183 237.076 44.3743 237.076C37.0303 237.076 31.7023 231.988 31.7023 224.596ZM37.5583 224.596C37.5583 228.916 40.3423 231.844 44.3743 231.844C48.4063 231.844 51.1903 228.916 51.1903 224.596C51.1903 220.276 48.4063 217.348 44.3743 217.348C40.3423 217.348 37.5583 220.276 37.5583 224.596ZM64.6161 208.036C62.6001 208.036 61.0161 206.452 61.0161 204.484C61.0161 202.516 62.6001 200.98 64.6161 200.98C66.5361 200.98 68.1201 202.516 68.1201 204.484C68.1201 206.452 66.5361 208.036 64.6161 208.036ZM61.6881 236.5V212.788H67.5441V236.5H61.6881ZM79.4503 236.5H73.5943V212.788H79.0183L79.4983 215.86C80.9863 213.46 83.8663 212.068 87.0823 212.068C93.0343 212.068 96.1063 215.764 96.1063 221.908V236.5H90.2503V223.3C90.2503 219.316 88.2823 217.396 85.2583 217.396C81.6583 217.396 79.4503 219.892 79.4503 223.732V236.5ZM109.924 236.5H104.068V217.684H99.5079V212.788H104.068V205.396H109.924V212.788H114.532V217.684H109.924V236.5ZM141.692 236.452L117.356 236.5V231.892L128.828 222.196C133.58 218.164 135.164 215.86 135.164 212.5C135.164 208.516 133.004 206.26 129.308 206.26C125.468 206.26 123.068 208.948 123.02 213.46H116.924C116.972 205.78 121.868 200.788 129.308 200.788C136.796 200.788 141.452 205.06 141.452 212.164C141.452 217.06 138.764 220.756 133.436 225.316L127.1 230.74H141.692V236.452Z" fill="#0077B6"/>
<defs>
<clipPath id="clip0_14_15272">
<rect width="108" height="185" fill="white" transform="translate(18 0.5)"/>
</clipPath>
</defs>
</svg>
