<svg width="25" height="25" viewBox="0 0 25 25" fill="none" xmlns="http://www.w3.org/2000/svg">
<path fill-rule="evenodd" clip-rule="evenodd" d="M12.8 3.2373C7.82949 3.2373 3.80005 7.26674 3.80005 12.2373C3.80005 17.2079 7.82949 21.2373 12.8 21.2373C17.7706 21.2373 21.8 17.2079 21.8 12.2373C21.8 7.26674 17.7706 3.2373 12.8 3.2373ZM1.80005 12.2373C1.80005 6.16217 6.72492 1.2373 12.8 1.2373C18.8752 1.2373 23.8 6.16217 23.8 12.2373C23.8 18.3124 18.8752 23.2373 12.8 23.2373C6.72492 23.2373 1.80005 18.3124 1.80005 12.2373Z" fill="#475467"/>
<path fill-rule="evenodd" clip-rule="evenodd" d="M12.8 5.2373C13.3523 5.2373 13.8 5.68502 13.8 6.2373V11.6193L17.2473 13.3429C17.7412 13.5899 17.9415 14.1905 17.6945 14.6845C17.4475 15.1785 16.8468 15.3787 16.3528 15.1317L12.3528 13.1317C12.0141 12.9623 11.8 12.6161 11.8 12.2373V6.2373C11.8 5.68502 12.2478 5.2373 12.8 5.2373Z" fill="#475467"/>
</svg>
