<svg width="25" height="24" viewBox="0 0 25 24" fill="none" xmlns="http://www.w3.org/2000/svg">
<path fill-rule="evenodd" clip-rule="evenodd" d="M12.8003 3C7.82973 3 3.80029 7.02944 3.80029 12C3.80029 16.9706 7.82973 21 12.8003 21C17.7709 21 21.8003 16.9706 21.8003 12C21.8003 7.02944 17.7709 3 12.8003 3ZM1.80029 12C1.80029 5.92487 6.72516 1 12.8003 1C18.8754 1 23.8003 5.92487 23.8003 12C23.8003 18.0751 18.8754 23 12.8003 23C6.72516 23 1.80029 18.0751 1.80029 12Z" fill="#0077B6"/>
<path fill-rule="evenodd" clip-rule="evenodd" d="M12.8003 5C13.3526 5 13.8003 5.44772 13.8003 6V11.382L17.2475 13.1056C17.7415 13.3526 17.9417 13.9532 17.6947 14.4472C17.4477 14.9412 16.8471 15.1414 16.3531 14.8944L12.3531 12.8944C12.0143 12.725 11.8003 12.3788 11.8003 12V6C11.8003 5.44772 12.248 5 12.8003 5Z" fill="#0077B6"/>
</svg>
