<svg width="25" height="30" viewBox="0 0 25 30" fill="none" xmlns="http://www.w3.org/2000/svg">
<path d="M11.0937 23.2698V25.1073C11.0937 25.3136 10.8687 25.4355 10.6905 25.3323L8.06553 23.748C7.97671 23.6921 7.90348 23.6147 7.85266 23.5229C7.80185 23.4311 7.77509 23.3279 7.7749 23.223V21.3855C7.7749 21.1792 7.9999 21.0573 8.17803 21.1605L10.803 22.7448C10.9812 22.8573 11.0937 23.0542 11.0937 23.2698Z" fill="#0077B6"/>
<path d="M13.3344 1.2067H13.3372L23.5756 7.43357C24.0978 7.75513 24.4156 8.32982 24.4156 8.93544V20.5979C24.4156 21.4754 23.9638 22.3211 23.1838 22.7879L13.2997 28.7936C13.0184 28.9668 12.6945 29.0586 12.3641 29.0586C12.0337 29.0586 11.7098 28.9668 11.4284 28.7936L1.54156 22.7861C1.16623 22.5574 0.856025 22.236 0.640781 21.8528C0.425537 21.4696 0.312488 21.0375 0.3125 20.5979V8.93544C0.3125 8.33919 0.62375 7.75326 1.16375 7.43545L11.4116 1.20107C11.7023 1.02658 12.0352 0.934869 12.3742 0.93586C12.7133 0.936851 13.0456 1.0305 13.3353 1.2067M12.3697 2.81357L3.20281 8.38888L6.49344 10.3998L15.6716 4.82076L12.3697 2.81357ZM18.7588 6.69763L9.56656 12.2776L12.3791 13.9951L21.665 8.46576L18.7588 6.69763ZM2.1875 20.5979C2.1875 20.8408 2.31594 21.0629 2.51562 21.1839L11.4341 26.6026V15.6161L8.525 13.8395V15.5158C8.525 15.7408 8.28125 15.872 8.09375 15.7689L5.58125 14.2408C5.54106 14.214 5.50807 14.1778 5.48518 14.1353C5.4623 14.0928 5.45021 14.0453 5.45 13.997V11.9608L2.1875 9.96763V20.5979ZM22.2125 21.1839L22.22 21.1801C22.319 21.1186 22.4005 21.0327 22.4567 20.9306C22.5128 20.8284 22.5417 20.7136 22.5406 20.597V10.1251L13.3091 15.6236V26.5942L22.2125 21.1839Z" fill="#0077B6"/>
</svg>
