<svg width="21" height="23" viewBox="0 0 21 23" fill="none" xmlns="http://www.w3.org/2000/svg">
<path d="M9.37497 18.0929V19.5629C9.37497 19.7279 9.19497 19.8254 9.05247 19.7429L6.95247 18.4754C6.88142 18.4307 6.82283 18.3687 6.78218 18.2953C6.74153 18.2218 6.72012 18.1393 6.71997 18.0554V16.5854C6.71997 16.4204 6.89997 16.3229 7.04247 16.4054L9.14247 17.6729C9.28497 17.7629 9.37497 17.9204 9.37497 18.0929Z" fill="#1D2939"/>
<path d="M11.1675 0.442382H11.1698L19.3605 5.42388C19.7782 5.68113 20.0325 6.14088 20.0325 6.62538V15.9554C20.0325 16.6574 19.671 17.3339 19.047 17.7074L11.1398 22.5119C10.9147 22.6505 10.6556 22.7239 10.3912 22.7239C10.1269 22.7239 9.8678 22.6505 9.64275 22.5119L1.73325 17.7059C1.43298 17.5229 1.18482 17.2658 1.01262 16.9593C0.84043 16.6527 0.74999 16.307 0.75 15.9554V6.62538C0.75 6.14838 0.999 5.67963 1.431 5.42538L9.62925 0.437882C9.86182 0.298288 10.1281 0.224921 10.3994 0.225714C10.6706 0.226507 10.9365 0.30143 11.1683 0.442382M10.3958 1.72788L3.06225 6.18813L5.69475 7.79688L13.0372 3.33363L10.3958 1.72788ZM15.507 4.83513L8.15325 9.29913L10.4032 10.6731L17.832 6.24963L15.507 4.83513ZM2.25 15.9554C2.25 16.1496 2.35275 16.3274 2.5125 16.4241L9.64725 20.7591V11.9699L7.32 10.5486V11.8896C7.32 12.0696 7.125 12.1746 6.975 12.0921L4.965 10.8696C4.93285 10.8482 4.90646 10.8193 4.88815 10.7852C4.86984 10.7512 4.86017 10.7133 4.86 10.6746V9.04563L2.25 7.45113V15.9554ZM18.27 16.4241L18.276 16.4211C18.3552 16.3719 18.4204 16.3032 18.4653 16.2215C18.5103 16.1398 18.5334 16.0479 18.5325 15.9546V7.57713L11.1473 11.9759V20.7524L18.27 16.4241Z" fill="#1D2939"/>
</svg>
