<svg width="21" height="24" viewBox="0 0 21 24" fill="none" xmlns="http://www.w3.org/2000/svg">
<path d="M11.1675 0.966674H11.1698L19.3605 5.94817C19.7782 6.20542 20.0325 6.66517 20.0325 7.14967V16.4797C20.0325 17.1817 19.671 17.8582 19.047 18.2317L11.1398 23.0362C10.9147 23.1748 10.6556 23.2482 10.3912 23.2482C10.1269 23.2482 9.8678 23.1748 9.64275 23.0362L1.73325 18.2302C1.43298 18.0472 1.18482 17.7901 1.01262 17.4836C0.84043 17.177 0.74999 16.8313 0.75 16.4797V7.14967C0.75 6.67267 0.999 6.20392 1.431 5.94967L9.62925 0.962174C9.86182 0.82258 10.1281 0.749213 10.3994 0.750006C10.6706 0.750799 10.9365 0.825722 11.1683 0.966674M10.3958 2.25217L3.06225 6.71242L5.69475 8.32117L13.0372 3.85792L10.3958 2.25217ZM15.507 5.35942L8.15325 9.82342L10.4032 11.1974L17.832 6.77392L15.507 5.35942ZM2.25 16.4797C2.25 16.6739 2.35275 16.8517 2.5125 16.9484L9.64725 21.2834V12.4942L7.32 11.0729V12.4139C7.32 12.5939 7.125 12.6989 6.975 12.6164L4.965 11.3939C4.93285 11.3725 4.90646 11.3435 4.88815 11.3095C4.86984 11.2755 4.86017 11.2375 4.86 11.1989V9.56992L2.25 7.97542V16.4797ZM18.27 16.9484L18.276 16.9454C18.3552 16.8962 18.4204 16.8275 18.4653 16.7458C18.5103 16.6641 18.5334 16.5722 18.5325 16.4789V8.10142L11.1473 12.5002V21.2767L18.27 16.9484Z" fill="#0077B6"/>
</svg>
