<svg width="39" height="33" viewBox="0 0 39 33" fill="none" xmlns="http://www.w3.org/2000/svg">
<path d="M38.0224 25.3135L16.3607 23.8958L1.55199 30.5496L0.976547 5.12373L15.4736 0.371338L37.7572 0.599447L38.0224 25.3135Z" fill="#D0D5DD"/>
<g style="mix-blend-mode:multiply">
<path d="M15.4737 0.371338L16.3608 23.8958L38.0225 25.3135L37.7574 0.599447L15.4737 0.371338Z" fill="#344054"/>
</g>
<path d="M29.4695 32.1181L1.55199 30.5495L0.976547 5.12365L28.8611 5.8664L37.7572 0.599365L38.0234 25.3113L29.4695 32.1181Z" fill="#D0D5DD"/>
<g style="mix-blend-mode:multiply">
<path d="M37.7573 0.599365L28.8615 5.8664C29.0102 7.59287 29.4699 32.1178 29.4699 32.1178L38.0234 25.3113L37.7573 0.599365Z" fill="#98A2B3"/>
</g>
<path d="M28.8612 5.86645L0.976593 5.12371L15.4709 0.118164L37.7573 0.59942L28.8612 5.86645Z" fill="#667085"/>
<path d="M13.0104 31.1932L16.827 31.4078L16.7136 5.565L26.6414 0.359518L24.011 0.30249L12.7337 5.43704L13.0104 31.1932Z" fill="white"/>
<g opacity="0.27">
<path d="M12.7337 5.43677L13.0101 31.193L16.827 31.4075L16.7136 5.56473C16.7136 5.56473 13.5373 5.49345 12.7337 5.43677Z" fill="#D0D5DD"/>
</g>
</svg>
