<svg width="24" height="27" viewBox="0 0 24 27" fill="none" xmlns="http://www.w3.org/2000/svg">
<path d="M1.33337 9.65259H22.6667M1.33337 9.65259V21.3862C1.33337 22.8797 1.33337 23.626 1.62402 24.1964C1.87969 24.6982 2.28734 25.1066 2.7891 25.3622C3.35898 25.6526 4.10537 25.6526 5.59592 25.6526H18.4042C19.8947 25.6526 20.64 25.6526 21.2099 25.3622C21.7117 25.1066 22.1207 24.6982 22.3763 24.1964C22.6667 23.6266 22.6667 22.8812 22.6667 21.3907V9.65259M1.33337 9.65259V8.58618C1.33337 7.09271 1.33337 6.34542 1.62402 5.77498C1.87969 5.27322 2.28734 4.86557 2.7891 4.6099C3.35953 4.31925 4.10683 4.31925 5.6003 4.31925H6.66671M22.6667 9.65259V8.5818C22.6667 7.09125 22.6667 6.34486 22.3763 5.77498C22.1207 5.27322 21.7117 4.86557 21.2099 4.6099C20.6395 4.31925 19.8938 4.31925 18.4003 4.31925H17.3334M6.66671 4.31925H17.3334M6.66671 4.31925V1.65259M17.3334 4.31925V1.65259M11.6667 20.3193C11.8508 20.3193 12 20.17 12 19.9859V15.3193C12 15.1352 11.8508 14.9859 11.6667 14.9859H7.00004C6.81595 14.9859 6.66671 15.1352 6.66671 15.3193V19.9859C6.66671 20.17 6.81595 20.3193 7.00004 20.3193H11.6667Z" stroke="#1D2939" stroke-width="2" stroke-linecap="round" stroke-linejoin="round"/>
</svg>
