<svg width="14" height="12" viewBox="0 0 14 12" fill="none" xmlns="http://www.w3.org/2000/svg">
<path d="M5.71392 3.26416H3.5214C2.77467 3.26416 2.40102 3.26416 2.1158 3.40948C1.86492 3.53732 1.6611 3.74114 1.53326 3.99202C1.38794 4.27724 1.38794 4.65089 1.38794 5.39762V9.13096C1.38794 9.87769 1.38794 10.2505 1.53326 10.5358C1.6611 10.7866 1.86492 10.9911 2.1158 11.119C2.40074 11.2642 2.77394 11.2642 3.51921 11.2642H11.2567C12.0019 11.2642 12.3746 11.2642 12.6595 11.119C12.9104 10.9911 13.1149 10.7866 13.2428 10.5358C13.3879 10.2508 13.3879 9.87816 13.3879 9.13289V5.39543C13.3879 4.65016 13.3879 4.27696 13.2428 3.99202C13.1149 3.74114 12.9104 3.53732 12.6595 3.40948C12.3743 3.26416 12.0015 3.26416 11.2547 3.26416H9.06182M5.71392 3.26416H5.75513M5.71392 3.26416C5.72228 3.26416 5.73106 3.26416 5.74032 3.26416L5.75513 3.26416M5.71392 3.26416C5.64318 3.26413 5.60354 3.26376 5.57218 3.26025C5.18046 3.2164 4.91179 2.84354 4.99406 2.45805C5.00171 2.42218 5.01685 2.37679 5.04681 2.28691L5.0481 2.2831C5.08231 2.18044 5.09942 2.12912 5.11833 2.08382C5.31185 1.62009 5.75009 1.30471 6.25122 1.26777C6.30017 1.26416 6.35395 1.26416 6.46216 1.26416H8.31366C8.42187 1.26416 8.4761 1.26416 8.52504 1.26777C9.02618 1.30471 9.46395 1.62009 9.65747 2.08382C9.67637 2.12912 9.69357 2.18039 9.72778 2.28304C9.7586 2.37549 9.77401 2.42173 9.78178 2.45812C9.86404 2.84361 9.59581 3.2164 9.20408 3.26025C9.17273 3.26376 9.13269 3.26413 9.06182 3.26416M5.75513 3.26416H9.02059M9.02059 3.26416H9.06182M9.02059 3.26416L9.0354 3.26416C9.04466 3.26416 9.05345 3.26416 9.06182 3.26416M7.38794 9.26416C6.28337 9.26416 5.38794 8.36873 5.38794 7.26416C5.38794 6.15959 6.28337 5.26416 7.38794 5.26416C8.49251 5.26416 9.38794 6.15959 9.38794 7.26416C9.38794 8.36873 8.49251 9.26416 7.38794 9.26416Z" stroke="#D9F2FF" stroke-linecap="round" stroke-linejoin="round"/>
</svg>
