<svg width="21" height="17" viewBox="0 0 21 17" fill="none" xmlns="http://www.w3.org/2000/svg">
<path d="M1.5 7.93262V12.7328C1.5 13.8529 1.5 14.4127 1.71799 14.8405C1.90973 15.2168 2.21547 15.5231 2.5918 15.7148C3.0192 15.9326 3.57899 15.9326 4.69691 15.9326H16.3031C17.421 15.9326 17.98 15.9326 18.4074 15.7148C18.7837 15.5231 19.0905 15.2168 19.2822 14.8405C19.5 14.4131 19.5 13.8541 19.5 12.7362V7.93262M1.5 7.93262V5.93262M1.5 7.93262H19.5M1.5 5.93262V5.13281C1.5 4.01271 1.5 3.45224 1.71799 3.02441C1.90973 2.64809 2.21547 2.34235 2.5918 2.1506C3.01962 1.93262 3.58009 1.93262 4.7002 1.93262H16.3002C17.4203 1.93262 17.9796 1.93262 18.4074 2.1506C18.7837 2.34235 19.0905 2.64809 19.2822 3.02441C19.5 3.45182 19.5 4.01161 19.5 5.12953V5.93262M1.5 5.93262H19.5M5.5 11.9326H9.5M19.5 7.93262V5.93262" stroke="#667085" stroke-width="2" stroke-linecap="round" stroke-linejoin="round"/>
</svg>
