<svg width="21" height="18" viewBox="0 0 21 18" fill="none" xmlns="http://www.w3.org/2000/svg">
<path d="M7.83814 12.9905C10.9946 12.8151 13.5 10.2003 13.5 7C13.5 3.68629 10.8137 1 7.5 1C4.18629 1 1.5 3.68629 1.5 7C1.5 8.18071 1.84094 9.2817 2.42989 10.21L2.00586 11.482L2.00518 11.4839C1.84278 11.9711 1.76154 12.2149 1.81938 12.3771C1.86979 12.5184 1.98169 12.6299 2.12305 12.6803C2.28472 12.7379 2.52675 12.6573 3.01069 12.4959L3.01758 12.4939L4.29004 12.0698C5.2183 12.6588 6.31935 12.9998 7.50006 12.9998C7.61352 12.9998 7.72624 12.9967 7.83814 12.9905ZM7.83814 12.9905C7.83822 12.9907 7.83806 12.9902 7.83814 12.9905ZM7.83814 12.9905C8.65907 15.3259 10.8841 17.0002 13.5001 17.0002C14.6808 17.0002 15.7817 16.6588 16.7099 16.0698L17.982 16.4939L17.9845 16.4944C18.4717 16.6567 18.7158 16.7381 18.878 16.6803C19.0194 16.6299 19.1299 16.5184 19.1803 16.3771C19.2382 16.2146 19.1572 15.9706 18.9943 15.4821L18.5703 14.21L18.7123 13.9746C19.2138 13.0979 19.4995 12.0823 19.4995 11C19.4995 7.6863 16.8137 5 13.5 5L13.2754 5.00414L13.1621 5.00967" stroke="#0077B6" stroke-width="2" stroke-linecap="round" stroke-linejoin="round"/>
</svg>
