<svg width="21" height="19" viewBox="0 0 21 19" fill="none" xmlns="http://www.w3.org/2000/svg">
<path d="M14.5 5.88184H18.5C19.0523 5.88184 19.5 6.32955 19.5 6.88184V17.8818L16.167 15.1128C15.9875 14.9636 15.7608 14.8818 15.5273 14.8818H7.5C6.94771 14.8818 6.5 14.4341 6.5 13.8818V10.8818M14.5 5.88184V2.88184C14.5 2.32955 14.0523 1.88184 13.5 1.88184H2.5C1.94772 1.88184 1.5 2.32955 1.5 2.88184V13.8821L4.83301 11.1126C5.01255 10.9635 5.23924 10.8818 5.47266 10.8818H6.5M14.5 5.88184V9.88184C14.5 10.4341 14.0523 10.8818 13.5 10.8818H6.5" stroke="#667085" stroke-width="2" stroke-linecap="round" stroke-linejoin="round"/>
</svg>
