<svg width="18" height="21" viewBox="0 0 18 21" fill="none" xmlns="http://www.w3.org/2000/svg">
<path d="M11 8.15967V15.1597M7 8.15967V15.1597M3 4.15967V15.9597C3 17.0798 3 17.6394 3.21799 18.0673C3.40973 18.4436 3.71547 18.7501 4.0918 18.9419C4.5192 19.1597 5.07899 19.1597 6.19691 19.1597H11.8031C12.921 19.1597 13.48 19.1597 13.9074 18.9419C14.2837 18.7501 14.5905 18.4436 14.7822 18.0673C15 17.6399 15 17.0807 15 15.9628V4.15967M3 4.15967H5M3 4.15967H1M5 4.15967H13M5 4.15967C5 3.22778 5 2.76207 5.15224 2.39453C5.35523 1.90448 5.74432 1.5149 6.23438 1.31191C6.60192 1.15967 7.06812 1.15967 8 1.15967H10C10.9319 1.15967 11.3978 1.15967 11.7654 1.31191C12.2554 1.5149 12.6447 1.90448 12.8477 2.39453C12.9999 2.76207 13 3.22779 13 4.15967M13 4.15967H15M15 4.15967H17" stroke="#EB5757" stroke-width="2" stroke-linecap="round" stroke-linejoin="round"/>
</svg>
