<svg width="25" height="24" viewBox="0 0 25 24" fill="none" xmlns="http://www.w3.org/2000/svg">
<path d="M8.30029 8H8.01123C7.04816 8 6.56683 8 6.17627 8.17521C5.832 8.32965 5.5387 8.57838 5.32976 8.89258C5.09273 9.24902 5.01305 9.72386 4.85472 10.6738L3.92139 16.2738L3.92101 16.2759C3.70757 17.5565 3.6008 18.1972 3.78624 18.6965C3.94906 19.1348 4.26087 19.5022 4.6665 19.7349C5.12873 20 5.77805 20 7.07764 20H17.5227C18.8223 20 19.4726 20 19.9349 19.7349C20.3405 19.5022 20.6516 19.1348 20.8144 18.6965C20.9998 18.1974 20.893 17.557 20.6798 16.2774L20.6789 16.2738L19.7456 10.6738C19.5873 9.72386 19.508 9.24902 19.271 8.89258C19.0621 8.57838 18.7685 8.32965 18.4243 8.17521C18.0337 8 17.5527 8 16.5896 8H16.3003M8.30029 8H16.3003M8.30029 8C8.30029 5.79086 10.0912 4 12.3003 4C14.5094 4 16.3003 5.79086 16.3003 8" stroke="#003B5B" stroke-width="2" stroke-linecap="round" stroke-linejoin="round"/>
</svg>
