<svg width="23" height="18" viewBox="0 0 23 18" fill="none" xmlns="http://www.w3.org/2000/svg">
<path d="M5 9.00024H3.5V4.00024H1.5V2.00024H7.5V4.00024H5.5V6.79524L15.313 4.16624L14.733 2.00024H11.5V0.000243446H15.478C15.7019 -0.00469575 15.9209 0.0656458 16.1001 0.2C16.2792 0.334354 16.4081 0.524946 16.466 0.741243L18.019 6.53724L16.087 7.05424L15.831 6.09824L5 9.00024ZM4.5 16.0002C5.03043 16.0002 5.53914 15.7895 5.91421 15.4145C6.28929 15.0394 6.5 14.5307 6.5 14.0002C6.5 13.4698 6.28929 12.9611 5.91421 12.586C5.53914 12.211 5.03043 12.0002 4.5 12.0002C3.96957 12.0002 3.46086 12.211 3.08579 12.586C2.71071 12.9611 2.5 13.4698 2.5 14.0002C2.5 14.5307 2.71071 15.0394 3.08579 15.4145C3.46086 15.7895 3.96957 16.0002 4.5 16.0002ZM4.5 18.0002C3.43913 18.0002 2.42172 17.5788 1.67157 16.8287C0.921427 16.0785 0.5 15.0611 0.5 14.0002C0.5 12.9394 0.921427 11.922 1.67157 11.1718C2.42172 10.4217 3.43913 10.0002 4.5 10.0002C5.56087 10.0002 6.57828 10.4217 7.32843 11.1718C8.07857 11.922 8.5 12.9394 8.5 14.0002C8.5 15.0611 8.07857 16.0785 7.32843 16.8287C6.57828 17.5788 5.56087 18.0002 4.5 18.0002ZM17.5 16.0002C18.2956 16.0002 19.0587 15.6842 19.6213 15.1216C20.1839 14.559 20.5 13.7959 20.5 13.0002C20.5 12.2046 20.1839 11.4415 19.6213 10.8789C19.0587 10.3163 18.2956 10.0002 17.5 10.0002C16.7044 10.0002 15.9413 10.3163 15.3787 10.8789C14.8161 11.4415 14.5 12.2046 14.5 13.0002C14.5 13.7959 14.8161 14.559 15.3787 15.1216C15.9413 15.6842 16.7044 16.0002 17.5 16.0002ZM17.5 18.0002C16.1739 18.0002 14.9021 17.4735 13.9645 16.5358C13.0268 15.5981 12.5 14.3263 12.5 13.0002C12.5 11.6742 13.0268 10.4024 13.9645 9.46471C14.9021 8.52703 16.1739 8.00024 17.5 8.00024C18.8261 8.00024 20.0979 8.52703 21.0355 9.46471C21.9732 10.4024 22.5 11.6742 22.5 13.0002C22.5 14.3263 21.9732 15.5981 21.0355 16.5358C20.0979 17.4735 18.8261 18.0002 17.5 18.0002Z" fill="#219653"/>
</svg>
