<svg width="25" height="24" viewBox="0 0 25 24" fill="none" xmlns="http://www.w3.org/2000/svg">
<path d="M8.80029 8H8.51123C7.54816 8 7.06683 8 6.67627 8.17521C6.332 8.32965 6.0387 8.57838 5.82976 8.89258C5.59273 9.24902 5.51305 9.72386 5.35472 10.6738L4.42139 16.2738L4.42101 16.2759C4.20757 17.5565 4.1008 18.1972 4.28624 18.6965C4.44906 19.1348 4.76087 19.5022 5.1665 19.7349C5.62873 20 6.27805 20 7.57764 20H18.0227C19.3223 20 19.9726 20 20.4349 19.7349C20.8405 19.5022 21.1516 19.1348 21.3144 18.6965C21.4998 18.1974 21.393 17.557 21.1798 16.2774L21.1789 16.2738L20.2456 10.6738C20.0873 9.72386 20.008 9.24902 19.771 8.89258C19.5621 8.57838 19.2685 8.32965 18.9243 8.17521C18.5337 8 18.0527 8 17.0896 8H16.8003M8.80029 8H16.8003M8.80029 8C8.80029 5.79086 10.5912 4 12.8003 4C15.0094 4 16.8003 5.79086 16.8003 8" stroke="#475467" stroke-width="2" stroke-linecap="round" stroke-linejoin="round"/>
</svg>
