<svg width="25" height="24" viewBox="0 0 25 24" fill="none" xmlns="http://www.w3.org/2000/svg">
<path d="M22.5 12V17C22.5 20 20.5 22 17.5 22H7.5C4.5 22 2.5 20 2.5 17V12C2.5 9.28 4.14 7.38 6.69 7.06C6.95 7.02 7.22 7 7.5 7H17.5C17.76 7 18.01 7.00999 18.25 7.04999C20.83 7.34999 22.5 9.26 22.5 12Z" stroke="#003B5B" stroke-width="2" stroke-linecap="round" stroke-linejoin="round"/>
<path d="M18.2514 7.05C18.0114 7.01 17.7614 7.00001 17.5014 7.00001H7.50141C7.22141 7.00001 6.95141 7.02001 6.69141 7.06001C6.83141 6.78001 7.03141 6.52001 7.27141 6.28001L10.5214 3.02C11.8914 1.66 14.1114 1.66 15.4814 3.02L17.2314 4.79002C17.8714 5.42002 18.2114 6.22 18.2514 7.05Z" stroke="#003B5B" stroke-width="2" stroke-linecap="round" stroke-linejoin="round"/>
<path d="M22.5 12.5H19.5C18.4 12.5 17.5 13.4 17.5 14.5C17.5 15.6 18.4 16.5 19.5 16.5H22.5" stroke="#003B5B" stroke-width="2" stroke-linecap="round" stroke-linejoin="round"/>
</svg>
