<svg width="160" height="121" viewBox="0 0 160 121" fill="none" xmlns="http://www.w3.org/2000/svg">
<g clip-path="url(#clip0_84_2360)">
<path d="M77.9751 120.237C115.758 120.237 146.387 110.397 146.387 98.2594C146.387 86.1213 115.758 76.2815 77.9751 76.2815C40.1926 76.2815 9.56372 86.1213 9.56372 98.2594C9.56372 110.397 40.1926 120.237 77.9751 120.237Z" fill="#EBF8FF"/>
<path d="M79.2307 0.237305L133.5 17.5346V83.714L79.2307 66.4167V0.237305Z" fill="#D2CBC4"/>
<path d="M79.2308 0.237305L29.2947 17.5346V83.714L79.2308 66.4167V0.237305Z" fill="#9D9C9B"/>
<path d="M83.5512 100.888L29.2947 83.5911V17.4117L83.5512 34.709V100.888Z" fill="#D7D6D6"/>
<path d="M83.551 100.888L29.2946 83.5911L0 102.682L54.2688 119.967L83.551 100.888Z" fill="#E5E5E5"/>
<path d="M83.551 100.888L133.499 83.5911V17.4117L83.551 34.709V100.888Z" fill="#B1AEAA"/>
<path d="M29.2947 17.4118L79.2308 0.237305L133.5 17.4118L83.5512 34.709L29.2947 17.4118Z" fill="#E3E3E3"/>
<g style="mix-blend-mode:lighten" opacity="0.15">
<path d="M49.1731 23.7509L99.1092 6.57642L109.51 9.75823L59.5739 27.0555L49.1731 23.7509Z" fill="white"/>
</g>
<path d="M133.499 83.5911L83.551 100.876L110.064 118.051L160 100.766L133.499 83.5911Z" fill="#D7D6D6"/>
<path d="M29.2946 83.5911L7.44678 77.9154L29.2946 68.8368V83.5911Z" fill="#B1AEAA"/>
<path d="M133.5 83.7139H154.375L133.5 76.2201V83.7139Z" fill="#D2CBC4"/>
</g>
<defs>
<clipPath id="clip0_84_2360">
<rect width="160" height="120" fill="white" transform="translate(0 0.237305)"/>
</clipPath>
</defs>
</svg>
