<svg width="25" height="24" viewBox="0 0 25 24" fill="none" xmlns="http://www.w3.org/2000/svg">
<path d="M15.0299 9.46992L9.96992 14.5299C9.31992 13.8799 8.91992 12.9899 8.91992 11.9999C8.91992 10.0199 10.5199 8.41992 12.4999 8.41992C13.4899 8.41992 14.3799 8.81992 15.0299 9.46992Z" stroke="#475467" stroke-width="2" stroke-linecap="round" stroke-linejoin="round"/>
<path d="M18.3198 5.76998C16.5698 4.44998 14.5698 3.72998 12.4998 3.72998C8.96984 3.72998 5.67984 5.80998 3.38984 9.40998C2.48984 10.82 2.48984 13.19 3.38984 14.6C4.17984 15.84 5.09984 16.91 6.09984 17.77" stroke="#475467" stroke-width="2" stroke-linecap="round" stroke-linejoin="round"/>
<path d="M8.91992 19.5302C10.0599 20.0102 11.2699 20.2702 12.4999 20.2702C16.0299 20.2702 19.3199 18.1902 21.6099 14.5902C22.5099 13.1802 22.5099 10.8102 21.6099 9.40018C21.2799 8.88018 20.9199 8.39018 20.5499 7.93018" stroke="#475467" stroke-width="2" stroke-linecap="round" stroke-linejoin="round"/>
<path d="M16.0099 12.7002C15.7499 14.1102 14.5999 15.2602 13.1899 15.5202" stroke="#475467" stroke-width="2" stroke-linecap="round" stroke-linejoin="round"/>
<path d="M9.97 14.5298L2.5 21.9998" stroke="#475467" stroke-width="2" stroke-linecap="round" stroke-linejoin="round"/>
<path d="M22.4998 2L15.0298 9.47" stroke="#475467" stroke-width="2" stroke-linecap="round" stroke-linejoin="round"/>
</svg>
