<svg width="25" height="24" viewBox="0 0 25 24" fill="none" xmlns="http://www.w3.org/2000/svg">
<path d="M16.0799 11.9999C16.0799 13.9799 14.4799 15.5799 12.4999 15.5799C10.5199 15.5799 8.91992 13.9799 8.91992 11.9999C8.91992 10.0199 10.5199 8.41992 12.4999 8.41992C14.4799 8.41992 16.0799 10.0199 16.0799 11.9999Z" stroke="#475467" stroke-width="2" stroke-linecap="round" stroke-linejoin="round"/>
<path d="M12.4998 20.2702C16.0298 20.2702 19.3198 18.1902 21.6098 14.5902C22.5098 13.1802 22.5098 10.8102 21.6098 9.40021C19.3198 5.80021 16.0298 3.72021 12.4998 3.72021C8.96984 3.72021 5.67984 5.80021 3.38984 9.40021C2.48984 10.8102 2.48984 13.1802 3.38984 14.5902C5.67984 18.1902 8.96984 20.2702 12.4998 20.2702Z" stroke="#475467" stroke-width="2" stroke-linecap="round" stroke-linejoin="round"/>
</svg>
