<svg width="145" height="97" viewBox="0 0 145 97" fill="none" xmlns="http://www.w3.org/2000/svg">
<path d="M19.5121 84.7171C18.3998 83.8629 17.488 84.5166 17.3215 84.0322C17.3981 84.2028 16.5939 85.1305 16.4827 85.5109C17.5968 85.6628 19.0556 85.8078 19.5753 85.8078C19.8586 85.8078 19.661 84.831 19.5121 84.7171Z" fill="#470C07"/>
<path d="M21.37 93.7634C20.8157 94.6531 20.1665 95.4824 19.603 96.3565L20.674 96.491C21.0722 96.0222 21.4229 95.5677 21.6679 95.1555C21.759 95.0024 21.6454 94.4713 21.3706 93.7634H21.37Z" fill="#470C07"/>
<g style="mix-blend-mode:multiply" opacity="0.15">
<path d="M153.461 75.036C149.86 78.1912 139.92 83.3337 139.11 84.2819C138.289 85.2426 136.332 84.8746 127.305 84.4002C127.117 84.2657 124.982 93.5989 124.027 94.5439C121.956 96.5947 119.798 98.5527 117.308 100.058C112.338 103.063 106.489 103.866 100.815 104.084C88.6042 104.553 76.259 103.53 64.2037 101.474C64.2141 101.393 64.2244 101.312 64.2347 101.231C62.8477 102.43 61.1354 103.617 61.1816 103.617C61.2065 103.617 78.573 104.841 92.9423 105.757C103.026 106.399 113.784 107.195 114.289 106.651C115.021 105.861 129.732 94.0552 130.047 93.8491C130.174 93.7663 126.829 93.5839 125.771 93.4756C125.639 93.4619 126.724 88.2048 126.958 88.0747C127.559 87.741 138.759 89.5402 139.038 89.3871C139.529 89.1188 151.76 79.9046 156.016 76.6777C156.086 76.6248 157.165 75.7899 157.224 75.7326C156.321 75.3143 154.367 75.4475 153.462 75.0353L153.461 75.036Z" fill="#470C07"/>
</g>
<g style="mix-blend-mode:multiply" opacity="0.15">
<path d="M60.7391 94.7988C58.7539 97.4248 56.0575 99.3131 52.819 99.866C48.9112 100.533 44.6502 99.5074 40.7661 99.0186L22.0077 97.3501C19.8614 99.2011 18.1278 100.532 18.2798 100.589C18.2798 100.589 54.7318 103.324 54.761 103.306C55.5196 102.834 61.505 97.7019 61.9128 97.7672C62.2538 97.822 63.6044 97.0656 65.0414 97.2418C65.1404 96.4698 64.9289 97.39 65.0286 96.618C65.3021 94.4906 62.0247 93.0979 60.7397 94.7982L60.7391 94.7988Z" fill="#470C07"/>
</g>
<path d="M110.926 55.101L68.3461 50.9826L39.1742 60.543L38.2502 19.2123L66.7931 12.7125L110.606 14.9526L110.926 55.101Z" fill="#E2B65F"/>
<g style="mix-blend-mode:multiply">
<path d="M66.793 12.7125L68.346 50.982L110.926 55.101L110.606 14.952L66.793 12.7125Z" fill="#E0962B"/>
</g>
<path d="M94.054 65.4322L39.1742 60.5431L38.2502 19.2123L93.0717 22.7579L110.606 14.9526L110.928 55.098L94.054 65.4322Z" fill="#E2B65F"/>
<g style="mix-blend-mode:multiply">
<path d="M110.606 14.9518L93.0718 22.7571C93.3502 25.573 94.054 65.4313 94.054 65.4313L110.928 55.0977L110.605 14.9518H110.606Z" fill="#FFC257"/>
</g>
<path d="M93.0718 22.7579L38.2502 19.2123L66.7901 12.301L110.606 14.9526L93.0718 22.7579Z" fill="#FEE5AE"/>
<path d="M61.6982 62.5494L69.2014 63.2181L69.1886 21.2486L88.7512 13.6294L83.5798 13.3169L61.3645 20.7069L61.6982 62.5494Z" fill="white"/>
<g opacity="0.27">
<path d="M61.3645 20.707L61.6982 62.5494L69.2014 63.2181L69.1886 21.2486C69.1886 21.2486 62.9437 20.8664 61.3645 20.707Z" fill="#E2B65F"/>
</g>
<path d="M52.7435 28.2822L39.2805 27.2593L39.1365 20.6605L52.7776 21.5004L52.7435 28.2822Z" fill="white"/>
<path d="M88.676 77.3365L45.7183 73.9179L16.35 86.4816L15.2097 36.7641L43.9592 27.9078L88.1502 29.0204L88.676 77.3365Z" fill="#E2B65F"/>
<g style="mix-blend-mode:multiply">
<path d="M43.9592 27.9078L45.7183 73.9179L88.676 77.3365L88.1502 29.0204L43.9592 27.9078Z" fill="#E0962B"/>
</g>
<path d="M71.7149 90.382L16.35 86.4816L15.2097 36.7641L70.5084 39.0496L88.1503 29.0204L88.6779 77.3327L71.7149 90.382Z" fill="#E2B65F"/>
<g style="mix-blend-mode:multiply">
<path d="M88.1502 29.0204L70.5083 39.0496C70.8031 42.4289 71.7149 90.382 71.7149 90.382L88.6778 77.3327L88.1502 29.0204Z" fill="#FFC257"/>
</g>
<path d="M70.5084 39.0496L15.2097 36.7641L43.9538 27.4129L88.1503 29.0204L70.5084 39.0496Z" fill="#FEE5AE"/>
<path d="M39.0734 88.0822L46.6428 88.6158L46.4173 38.097L66.1058 28.2185L60.8893 28.0286L38.5251 37.7278L39.0734 88.0822Z" fill="white"/>
<g opacity="0.27">
<path d="M38.5251 37.7278L39.0734 88.0822L46.6428 88.6157L46.4179 38.0976C46.4179 38.0976 40.1189 37.8635 38.5258 37.7284L38.5251 37.7278Z" fill="#E2B65F"/>
</g>
<path d="M27.1402 47.0074L16.2891 46.4129L16.1104 38.4756L29.87 38.993V47.1575L27.1402 47.0074Z" fill="white"/>
<path d="M155.699 75.3597L113.009 71.016L83.824 82.9465L82.6904 33.2047L111.261 24.968L155.176 27.0324L155.699 75.3597Z" fill="#E2B65F"/>
<g style="mix-blend-mode:multiply">
<path d="M111.261 24.968L113.009 71.016L155.699 75.3597L155.176 27.0324L111.261 24.968Z" fill="#E0962B"/>
</g>
<path d="M138.844 88.04L83.824 82.9467L82.6904 33.2049L137.644 36.682L155.176 27.0326L155.701 75.3568L138.844 88.04Z" fill="#E2B65F"/>
<g style="mix-blend-mode:multiply">
<path d="M155.176 27.0326L137.645 36.682C137.938 40.0676 138.843 88.04 138.843 88.04L155.7 75.3568L155.176 27.0326H155.176Z" fill="#FFC257"/>
</g>
<path d="M137.644 36.6819L82.6904 33.2047L111.255 24.4724L155.176 27.0325L137.644 36.6819Z" fill="#FEE5AE"/>
<path d="M106.406 85.0365L113.928 85.7332L113.705 35.21L133.27 25.7555L128.086 25.4536L105.861 34.6709L106.406 85.0365Z" fill="white"/>
<g opacity="0.27">
<path d="M105.861 34.671L106.405 85.0372L113.927 85.7332L113.704 35.2101C113.704 35.2101 107.444 34.8397 105.86 34.671H105.861Z" fill="#E2B65F"/>
</g>
<path d="M97.2599 43.9139L83.7634 42.8766L83.5859 34.9356L97.2599 35.7493V43.9139Z" fill="white"/>
<path d="M64.1262 93.4459L37.4731 91.4225L19.1511 99.8223L18.7791 67.1829L36.692 61.2204L64.1262 61.7234V93.4459Z" fill="#E2B65F"/>
<g style="mix-blend-mode:multiply">
<path d="M36.6921 61.2198L37.4732 91.4225L64.1263 93.4459V61.7235L36.6921 61.2198Z" fill="#E0962B"/>
</g>
<path d="M53.5054 102.099L19.1511 99.8223L18.7791 67.1828L53.103 68.3993L64.1262 61.7234L64.2569 93.5498L53.5054 102.099Z" fill="#E2B65F"/>
<g style="mix-blend-mode:multiply">
<path d="M64.1264 61.7234L53.1033 68.3993C53.2637 70.617 53.5057 102.099 53.5057 102.099L64.2571 93.5516L64.1264 61.7234Z" fill="#FFC257"/>
</g>
<path d="M53.103 68.3993L18.7791 67.1828L36.692 60.8947L64.1262 61.7234L53.103 68.3993Z" fill="#FEE5AE"/>
<path d="M33.2512 100.757L37.948 101.068L38.1498 67.8976L50.4427 61.3101L47.2047 61.2123L33.2512 67.6959V100.757Z" fill="white"/>
<g opacity="0.27">
<path d="M33.2512 67.6958V100.757L37.948 101.068L38.1498 67.8975C38.1498 67.8975 34.2396 67.7761 33.2512 67.6958Z" fill="#E2B65F"/>
</g>
<path d="M27.8781 73.2903L19.3513 72.9243V67.9772L27.8525 68.2543L27.8781 73.2903Z" fill="white"/>
<path d="M128.357 93.2576L89.573 90.7193L63.0591 102.632L62.0288 57.1092L87.9847 48.6004L127.882 49.0088L128.357 93.2576Z" fill="#E2B65F"/>
<g style="mix-blend-mode:multiply">
<path d="M87.9849 48.6004L89.5731 90.7193L128.357 93.2576L127.882 49.0088L87.9849 48.6004Z" fill="#E0962B"/>
</g>
<path d="M113.043 105.441L63.0591 102.632L62.0288 57.1093L111.954 58.4391L127.882 49.0089L128.358 93.2539L113.043 105.441Z" fill="#E2B65F"/>
<g style="mix-blend-mode:multiply">
<path d="M127.882 49.0089L111.955 58.4391C112.221 61.5302 113.044 105.44 113.044 105.44L128.359 93.2539L127.882 49.0089Z" fill="#FFC257"/>
</g>
<path d="M111.954 58.4392L62.0288 57.1094L87.9798 48.1473L127.882 49.009L111.954 58.4392Z" fill="#FEE5AE"/>
<path d="M83.5745 103.785L90.4078 104.169L90.2048 57.8994L107.98 48.5793L103.27 48.4772L83.0791 57.6703L83.5745 103.785Z" fill="white"/>
<g opacity="0.27">
<path d="M83.0791 57.6702L83.5739 103.785L90.4078 104.169L90.2048 57.8993C90.2048 57.8993 84.5179 57.7716 83.0791 57.6702Z" fill="#E2B65F"/>
</g>
<path d="M75.2652 66.4269L63.0039 65.9326L62.8428 58.6646L75.2652 58.9484V66.4269Z" fill="white"/>
<path d="M4.13354 30.862C6.10963 29.7463 7.65353 27.9278 8.44555 25.735C9.23817 27.9278 10.7821 29.7463 12.7582 30.862C10.7821 31.9789 9.23817 33.7975 8.44555 35.9902C7.65353 33.7975 6.10963 31.9789 4.13354 30.862Z" fill="#FFDD18"/>
<path d="M1.49731 37.7775C2.17566 37.3947 2.70509 36.7708 2.97679 36.0181C3.2485 36.7708 3.77853 37.3947 4.45688 37.7775C3.77853 38.1611 3.2491 38.7849 2.97679 39.5376C2.70509 38.7849 2.17505 38.1611 1.49731 37.7775Z" fill="#FFDD18"/>
<path d="M119.832 7.1554C120.412 6.82792 120.865 6.29437 121.097 5.65125C121.33 6.29437 121.783 6.82792 122.362 7.1554C121.782 7.48288 121.329 8.01643 121.097 8.65956C120.865 8.01643 120.412 7.48288 119.832 7.1554Z" fill="#FFDD18"/>
<path d="M115.819 17.2143C116.863 16.6247 117.679 15.6641 118.098 14.5048C118.516 15.6634 119.332 16.6247 120.376 17.2143C119.332 17.8045 118.516 18.7652 118.098 19.9244C117.679 18.7658 116.863 17.8045 115.819 17.2143Z" fill="#FFDD18"/>
<path d="M5.73193 43.1145C6.86859 42.4726 7.75725 41.4261 8.21252 40.1647C8.6684 41.4261 9.55706 42.4726 10.6937 43.1145C9.55706 43.757 8.6684 44.8036 8.21252 46.0649C7.75664 44.8036 6.86859 43.757 5.73193 43.1145Z" fill="#FFDD18"/>
<path d="M108.643 7.92163C110.393 6.93297 111.762 5.32235 112.463 3.37927C113.165 5.32173 114.533 6.93297 116.284 7.92163C114.533 8.91091 113.166 10.5222 112.463 12.4652C111.762 10.5228 110.393 8.91153 108.643 7.92163Z" fill="#FFDD18"/>
<path d="M1.35311 28.4293C1.40217 28.1198 1.19695 27.8281 0.894749 27.7779C0.592547 27.7276 0.307797 27.9378 0.258743 28.2473C0.209688 28.5569 0.414905 28.8485 0.717108 28.8988C1.01931 28.949 1.30406 28.7388 1.35311 28.4293Z" fill="#FFDD18"/>
<path d="M106.898 1.88077C107.143 1.88077 107.342 1.67729 107.342 1.42629C107.342 1.17528 107.143 0.971802 106.898 0.971802C106.653 0.971802 106.454 1.17528 106.454 1.42629C106.454 1.67729 106.653 1.88077 106.898 1.88077Z" fill="#FFDD18"/>
<path d="M42.4884 9.97912C42.6921 9.66614 42.6095 9.24326 42.304 9.0346C41.9984 8.82595 41.5855 8.91052 41.3818 9.22351C41.1781 9.5365 41.2607 9.95937 41.5662 10.168C41.8718 10.3767 42.2847 10.2921 42.4884 9.97912Z" fill="#FFDD18"/>
<path d="M9.8291 57.6865C10.1009 57.347 10.0525 56.846 9.72102 56.5676C9.38953 56.2892 8.90045 56.3388 8.62863 56.6783C8.35682 57.0178 8.40521 57.5188 8.7367 57.7972C9.0682 58.0756 9.55729 58.026 9.8291 57.6865Z" fill="#FFDD18"/>
<path d="M127.407 22.0918C127.713 22.0918 127.961 21.8376 127.961 21.524C127.961 21.2104 127.713 20.9562 127.407 20.9562C127.1 20.9562 126.852 21.2104 126.852 21.524C126.852 21.8376 127.1 22.0918 127.407 22.0918Z" fill="#FFDD18"/>
<path d="M64.4394 5.28696C64.7455 5.28696 64.9937 5.03275 64.9937 4.71916C64.9937 4.40558 64.7455 4.15137 64.4394 4.15137C64.1332 4.15137 63.885 4.40558 63.885 4.71916C63.885 5.03275 64.1332 5.28696 64.4394 5.28696Z" fill="#FFDD18"/>
</svg>
