<svg width="23" height="29" viewBox="0 0 23 29" fill="none" xmlns="http://www.w3.org/2000/svg">
<path d="M1.198 11.1804C1.198 18.3208 7.44458 24.2257 10.2095 26.4895C10.6052 26.8135 10.8054 26.9775 11.1006 27.0606C11.3305 27.1253 11.6688 27.1253 11.8987 27.0606C12.1945 26.9773 12.3933 26.815 12.7905 26.4898C15.5554 24.2259 21.8017 18.3215 21.8017 11.1811C21.8017 8.47886 20.7163 5.88701 18.7844 3.97626C16.8524 2.06551 14.2322 0.992065 11.5 0.992065C8.76777 0.992065 6.14733 2.06567 4.21535 3.97642C2.28337 5.88717 1.198 8.47821 1.198 11.1804Z" stroke="#0077B6" stroke-width="2" stroke-linecap="round" stroke-linejoin="round"/>
<path d="M8.55649 9.82225C8.55649 11.4478 9.87429 12.7657 11.4999 12.7657C13.1255 12.7657 14.4433 11.4478 14.4433 9.82225C14.4433 8.19666 13.1255 6.87886 11.4999 6.87886C9.87429 6.87886 8.55649 8.19666 8.55649 9.82225Z" stroke="#0077B6" stroke-width="2" stroke-linecap="round" stroke-linejoin="round"/>
</svg>
