<svg width="34" height="21" viewBox="0 0 34 21" fill="none" xmlns="http://www.w3.org/2000/svg">
<g clip-path="url(#clip0_233_4486)">
<path d="M12.5945 2.92578H21.3733V18.6538H12.5945V2.92578Z" fill="#FF5F00"/>
<path d="M13.1519 10.7898C13.1519 7.59423 14.6568 4.7598 16.9699 2.92575C15.27 1.59196 13.1241 0.786133 10.7831 0.786133C5.2369 0.786133 0.75 5.25993 0.75 10.7898C0.75 16.3196 5.2369 20.7935 10.783 20.7935C13.124 20.7935 15.2699 19.9877 16.9699 18.6537C14.6568 16.8475 13.1519 13.9854 13.1519 10.7898Z" fill="#EB001B"/>
<path d="M33.2177 10.7898C33.2177 16.3196 28.7308 20.7935 23.1847 20.7935C20.8437 20.7935 18.6978 19.9877 16.9978 18.6537C19.3388 16.8198 20.8159 13.9854 20.8159 10.7898C20.8159 7.59423 19.3109 4.7598 16.9978 2.92575C18.6977 1.59196 20.8437 0.786133 23.1847 0.786133C28.7308 0.786133 33.2177 5.28778 33.2177 10.7898Z" fill="#F79E1B"/>
</g>
<defs>
<clipPath id="clip0_233_4486">
<rect width="32.5" height="20" fill="white" transform="translate(0.75 0.814453)"/>
</clipPath>
</defs>
</svg>
