<svg width="22" height="17" viewBox="0 0 22 17" fill="none" xmlns="http://www.w3.org/2000/svg">
<path d="M20.75 3.2854V13.7854C20.75 15.028 19.7426 16.0354 18.5 16.0354H3.5C2.25736 16.0354 1.25 15.028 1.25 13.7854V3.2854M20.75 3.2854C20.75 2.04276 19.7426 1.0354 18.5 1.0354H3.5C2.25736 1.0354 1.25 2.04276 1.25 3.2854M20.75 3.2854V3.52811C20.75 4.30945 20.3447 5.03485 19.6792 5.44434L12.1792 10.0597C11.4561 10.5048 10.5439 10.5048 9.82078 10.0597L2.32078 5.44434C1.65535 5.03485 1.25 4.30945 1.25 3.52811V3.2854" stroke="#0077B6" stroke-width="1.5" stroke-linecap="round" stroke-linejoin="round"/>
</svg>
