<svg width="25" height="25" viewBox="0 0 25 25" fill="none" xmlns="http://www.w3.org/2000/svg">
<path d="M12.2203 3.14734C8.91028 3.14734 6.22028 5.83734 6.22028 9.14734V12.0373C6.22028 12.6473 5.96028 13.5773 5.65028 14.0973L4.50028 16.0073C3.79028 17.1873 4.28028 18.4973 5.58028 18.9373C9.89028 20.3773 14.5403 20.3773 18.8503 18.9373C20.0603 18.5373 20.5903 17.1073 19.9303 16.0073L18.7803 14.0973C18.4803 13.5773 18.2203 12.6473 18.2203 12.0373V9.14734C18.2203 5.84734 15.5203 3.14734 12.2203 3.14734Z" stroke="#475467" stroke-width="2" stroke-miterlimit="10" stroke-linecap="round"/>
<path d="M14.0701 3.43725C13.7601 3.34725 13.4401 3.27725 13.1101 3.23725C12.1501 3.11725 11.2301 3.18725 10.3701 3.43725C10.6601 2.69725 11.3801 2.17725 12.2201 2.17725C13.0601 2.17725 13.7801 2.69725 14.0701 3.43725Z" stroke="#475467" stroke-width="2" stroke-miterlimit="10" stroke-linecap="round" stroke-linejoin="round"/>
<path opacity="0.4" d="M15.2202 19.2974C15.2202 20.9474 13.8702 22.2974 12.2202 22.2974C11.4002 22.2974 10.6402 21.9574 10.1002 21.4174C9.56021 20.8774 9.22021 20.1174 9.22021 19.2974" stroke="#475467" stroke-width="2" stroke-miterlimit="10"/>
</svg>
