<svg width="25" height="24" viewBox="0 0 25 24" fill="none" xmlns="http://www.w3.org/2000/svg">
<path d="M12.2203 2.90997C8.91028 2.90997 6.22028 5.59997 6.22028 8.90997V11.8C6.22028 12.41 5.96028 13.34 5.65028 13.86L4.50028 15.77C3.79028 16.95 4.28028 18.26 5.58028 18.7C9.89028 20.14 14.5403 20.14 18.8503 18.7C20.0603 18.3 20.5903 16.87 19.9303 15.77L18.7803 13.86C18.4803 13.34 18.2203 12.41 18.2203 11.8V8.90997C18.2203 5.60997 15.5203 2.90997 12.2203 2.90997Z" stroke="#0077B6" stroke-width="2" stroke-miterlimit="10" stroke-linecap="round"/>
<path d="M14.0701 3.2C13.7601 3.11 13.4401 3.04 13.1101 3C12.1501 2.88 11.2301 2.95 10.3701 3.2C10.6601 2.46 11.3801 1.94 12.2201 1.94C13.0601 1.94 13.7801 2.46 14.0701 3.2Z" stroke="#0077B6" stroke-width="2" stroke-miterlimit="10" stroke-linecap="round" stroke-linejoin="round"/>
<path opacity="0.4" d="M15.2202 19.06C15.2202 20.71 13.8702 22.06 12.2202 22.06C11.4002 22.06 10.6402 21.72 10.1002 21.18C9.56021 20.64 9.22021 19.88 9.22021 19.06" stroke="#0077B6" stroke-width="2" stroke-miterlimit="10"/>
</svg>
