<svg width="25" height="24" viewBox="0 0 25 24" fill="none" xmlns="http://www.w3.org/2000/svg">
<path d="M12.7203 2.90997C9.41028 2.90997 6.72028 5.59997 6.72028 8.90997V11.8C6.72028 12.41 6.46028 13.34 6.15028 13.86L5.00028 15.77C4.29028 16.95 4.78028 18.26 6.08028 18.7C10.3903 20.14 15.0403 20.14 19.3503 18.7C20.5603 18.3 21.0903 16.87 20.4303 15.77L19.2803 13.86C18.9803 13.34 18.7203 12.41 18.7203 11.8V8.90997C18.7203 5.60997 16.0203 2.90997 12.7203 2.90997Z" stroke="#475467" stroke-width="2" stroke-miterlimit="10" stroke-linecap="round"/>
<path d="M14.5701 3.2C14.2601 3.11 13.9401 3.04 13.6101 3C12.6501 2.88 11.7301 2.95 10.8701 3.2C11.1601 2.46 11.8801 1.94 12.7201 1.94C13.5601 1.94 14.2801 2.46 14.5701 3.2Z" stroke="#475467" stroke-width="2" stroke-miterlimit="10" stroke-linecap="round" stroke-linejoin="round"/>
<path opacity="0.4" d="M15.7202 19.06C15.7202 20.71 14.3702 22.06 12.7202 22.06C11.9002 22.06 11.1402 21.72 10.6002 21.18C10.0602 20.64 9.72021 19.88 9.72021 19.06" stroke="#475467" stroke-width="2" stroke-miterlimit="10"/>
</svg>
