<svg width="21" height="21" viewBox="0 0 21 21" fill="none" xmlns="http://www.w3.org/2000/svg">
<path d="M8.00246 3.13905C7.69873 2.37974 6.96332 1.88184 6.14551 1.88184H3.39474C2.3483 1.88184 1.5 2.72993 1.5 3.77637C1.5 12.6711 8.71078 19.8818 17.6055 19.8818C18.6519 19.8818 19.5 19.0335 19.5 17.987L19.5005 15.2358C19.5005 14.418 19.0027 13.6827 18.2434 13.379L15.6069 12.3248C14.9249 12.0519 14.1483 12.1747 13.5839 12.645L12.9035 13.2125C12.1089 13.8747 10.9396 13.8221 10.2082 13.0906L8.29222 11.1729C7.56079 10.4415 7.50673 9.27317 8.16895 8.47852L8.73633 7.79813C9.20661 7.23379 9.33049 6.457 9.05766 5.77493L8.00246 3.13905Z" stroke="#667085" stroke-width="2" stroke-linecap="round" stroke-linejoin="round"/>
</svg>
