<svg width="25" height="25" viewBox="0 0 25 25" fill="none" xmlns="http://www.w3.org/2000/svg">
<path fill-rule="evenodd" clip-rule="evenodd" d="M4.86461 15.7018C5.80229 14.7641 7.07406 14.2373 8.40015 14.2373H16.4001C17.7262 14.2373 18.998 14.7641 19.9357 15.7018C20.8734 16.6395 21.4001 17.9112 21.4001 19.2373V21.2373C21.4001 21.7896 20.9524 22.2373 20.4001 22.2373C19.8479 22.2373 19.4001 21.7896 19.4001 21.2373V19.2373C19.4001 18.4417 19.0841 17.6786 18.5215 17.116C17.9589 16.5534 17.1958 16.2373 16.4001 16.2373H8.40015C7.6045 16.2373 6.84144 16.5534 6.27883 17.116C5.71622 17.6786 5.40015 18.4417 5.40015 19.2373V21.2373C5.40015 21.7896 4.95243 22.2373 4.40015 22.2373C3.84786 22.2373 3.40015 21.7896 3.40015 21.2373V19.2373C3.40015 17.9112 3.92693 16.6395 4.86461 15.7018Z" fill="#475467"/>
<path fill-rule="evenodd" clip-rule="evenodd" d="M12.4001 4.2373C10.7433 4.2373 9.40015 5.58045 9.40015 7.2373C9.40015 8.89416 10.7433 10.2373 12.4001 10.2373C14.057 10.2373 15.4001 8.89416 15.4001 7.2373C15.4001 5.58045 14.057 4.2373 12.4001 4.2373ZM7.40015 7.2373C7.40015 4.47588 9.63872 2.2373 12.4001 2.2373C15.1616 2.2373 17.4001 4.47588 17.4001 7.2373C17.4001 9.99873 15.1616 12.2373 12.4001 12.2373C9.63872 12.2373 7.40015 9.99873 7.40015 7.2373Z" fill="#475467"/>
</svg>
