<svg width="40" height="41" viewBox="0 0 40 41" fill="none" xmlns="http://www.w3.org/2000/svg">
<g opacity="0.594703" filter="url(#filter0_b_388_3859)">
<path fill-rule="evenodd" clip-rule="evenodd" d="M19.9971 40.613C8.95138 40.613 -0.00292969 31.6587 -0.00292969 20.613C-0.00292969 9.56734 8.95138 0.613037 19.9971 0.613037C31.0428 0.613037 39.9971 9.56734 39.9971 20.613C39.9971 31.6587 31.0428 40.613 19.9971 40.613Z" fill="#0077B6" fill-opacity="0.19"/>
</g>
<g filter="url(#filter1_b_388_3859)">
<path fill-rule="evenodd" clip-rule="evenodd" d="M19.9971 35.1498C11.9686 35.1498 5.46029 28.6415 5.46029 20.613C5.46029 12.5845 11.9686 6.07617 19.9971 6.07617C28.0256 6.07617 34.5339 12.5845 34.5339 20.613C34.5339 28.6415 28.0256 35.1498 19.9971 35.1498Z" fill="#0077B6"/>
</g>
<path d="M23.1788 16.0083C24.1465 16.5667 24.95 17.3701 25.5086 18.3377C26.0671 19.3052 26.361 20.4029 26.3606 21.5201V28.7927H22.5697C22.3819 29.325 22.0336 29.7859 21.5729 30.1119C21.1121 30.438 20.5615 30.613 19.9971 30.613C19.4326 30.613 18.8821 30.438 18.4213 30.1119C17.9605 29.7859 17.6122 29.325 17.4244 28.7927H13.6335V21.5201C13.6331 20.4029 13.927 19.3052 14.4855 18.3377C15.0441 17.3701 15.8476 16.5667 16.8153 16.0083C16.6659 15.7401 16.5514 15.4538 16.4744 15.1565H13.6335V13.3384H16.4753C16.6775 12.5582 17.1331 11.8672 17.7705 11.3739C18.4079 10.8807 19.1911 10.613 19.9971 10.613C20.8031 10.613 21.5862 10.8807 22.2236 11.3739C22.861 11.8672 23.3166 12.5582 23.5188 13.3384H26.3606V15.1565H23.5188C23.442 15.4536 23.3281 15.7398 23.1797 16.0083M21.8589 17.372C21.3134 17.6974 20.6771 17.8838 19.9971 17.8838C19.3419 17.8847 18.6987 17.7078 18.1362 17.372C17.3364 17.731 16.6575 18.3135 16.1812 19.0495C15.7049 19.7855 15.4516 20.6434 15.4517 21.5201V26.9745H17.2698V23.3382C17.2698 22.6149 17.5572 21.9212 18.0686 21.4098C18.5801 20.8983 19.2738 20.611 19.9971 20.611C20.7204 20.611 21.4141 20.8983 21.9255 21.4098C22.437 21.9212 22.7243 22.6149 22.7243 23.3382V26.9745H24.5424V21.5201C24.5425 20.6434 24.2892 19.7855 23.8129 19.0495C23.3366 18.3135 22.6577 17.731 21.8579 17.372M19.9971 22.4291C19.756 22.4291 19.5247 22.5249 19.3543 22.6954C19.1838 22.8659 19.088 23.0971 19.088 23.3382V27.8836C19.088 28.1247 19.1838 28.3559 19.3543 28.5264C19.5247 28.6969 19.756 28.7927 19.9971 28.7927C20.2382 28.7927 20.4694 28.6969 20.6399 28.5264C20.8104 28.3559 20.9061 28.1247 20.9061 27.8836V23.3382C20.9061 23.0971 20.8104 22.8659 20.6399 22.6954C20.4694 22.5249 20.2382 22.4291 19.9971 22.4291ZM19.9971 16.0656C20.4793 16.0656 20.9417 15.8741 21.2827 15.5331C21.6237 15.1921 21.8152 14.7297 21.8152 14.2475C21.8152 13.7653 21.6237 13.3028 21.2827 12.9618C20.9417 12.6209 20.4793 12.4293 19.9971 12.4293C19.5149 12.4293 19.0524 12.6209 18.7114 12.9618C18.3705 13.3028 18.1789 13.7653 18.1789 14.2475C18.1789 14.7297 18.3705 15.1921 18.7114 15.5331C19.0524 15.8741 19.5149 16.0656 19.9971 16.0656Z" fill="#D9F2FF"/>
<defs>
<filter id="filter0_b_388_3859" x="-27.1857" y="-26.5698" width="94.3656" height="94.3656" filterUnits="userSpaceOnUse" color-interpolation-filters="sRGB">
<feFlood flood-opacity="0" result="BackgroundImageFix"/>
<feGaussianBlur in="BackgroundImageFix" stdDeviation="13.5914"/>
<feComposite in2="SourceAlpha" operator="in" result="effect1_backgroundBlur_388_3859"/>
<feBlend mode="normal" in="SourceGraphic" in2="effect1_backgroundBlur_388_3859" result="shape"/>
</filter>
<filter id="filter1_b_388_3859" x="-21.7225" y="-21.1066" width="83.4392" height="83.4394" filterUnits="userSpaceOnUse" color-interpolation-filters="sRGB">
<feFlood flood-opacity="0" result="BackgroundImageFix"/>
<feGaussianBlur in="BackgroundImageFix" stdDeviation="13.5914"/>
<feComposite in2="SourceAlpha" operator="in" result="effect1_backgroundBlur_388_3859"/>
<feBlend mode="normal" in="SourceGraphic" in2="effect1_backgroundBlur_388_3859" result="shape"/>
</filter>
</defs>
</svg>
