<svg width="14" height="14" viewBox="0 0 14 14" fill="none" xmlns="http://www.w3.org/2000/svg">
<path d="M6.37176 8.03001L9.60253 4.79924M12.9074 2.82756L10.1804 11.6906C9.93596 12.4849 9.81367 12.8822 9.60288 13.0139C9.42004 13.1282 9.19367 13.1473 8.99455 13.0647C8.76494 12.9694 8.57858 12.5973 8.20681 11.8538L6.47951 8.39917C6.42051 8.28118 6.39099 8.22243 6.35158 8.17131C6.31661 8.12594 6.27625 8.08507 6.23089 8.0501C6.18092 8.01159 6.12316 7.98271 6.01043 7.92635L2.54787 6.19507C1.80433 5.8233 1.43253 5.63724 1.33726 5.40763C1.25463 5.20851 1.27347 4.98193 1.38771 4.79909C1.51944 4.58827 1.91674 4.46579 2.71128 4.22132L11.5743 1.49422C12.199 1.30203 12.5114 1.206 12.7224 1.28346C12.9062 1.35093 13.0511 1.49567 13.1185 1.67944C13.1959 1.89033 13.0999 2.20262 12.9079 2.82663L12.9074 2.82756Z" stroke="#0077B6" stroke-width="1.5" stroke-linecap="round" stroke-linejoin="round"/>
</svg>
