<svg width="13" height="17" viewBox="0 0 13 17" fill="none" xmlns="http://www.w3.org/2000/svg">
<path d="M3.07779 8.4998V4.0998C3.07779 3.22459 3.43425 2.38522 4.06876 1.76635C4.70327 1.14748 5.56386 0.799805 6.46119 0.799805C7.35852 0.799805 8.2191 1.14748 8.85362 1.76635C9.48813 2.38522 9.84459 3.22459 9.84459 4.0998V8.4998C9.84459 9.37502 9.48813 10.2144 8.85362 10.8333C8.2191 11.4521 7.35852 11.7998 6.46119 11.7998C5.56386 11.7998 4.70327 11.4521 4.06876 10.8333C3.43425 10.2144 3.07779 9.37502 3.07779 8.4998ZM11.5645 8.50668C11.417 8.49118 11.2691 8.533 11.153 8.62308C11.0369 8.71317 10.9619 8.84425 10.9442 8.98793C10.8204 10.0631 10.2948 11.056 9.46778 11.7771C8.6408 12.4982 7.57044 12.8968 6.46119 12.8968C5.35194 12.8968 4.28158 12.4982 3.4546 11.7771C2.62762 11.056 2.10201 10.0631 1.97818 8.98793C1.96049 8.84425 1.88546 8.71317 1.76935 8.62308C1.65324 8.533 1.5054 8.49118 1.35789 8.50668C1.28396 8.51351 1.21217 8.53469 1.14676 8.56898C1.08134 8.60327 1.02362 8.64997 0.976984 8.70635C0.930352 8.76272 0.895752 8.82762 0.87522 8.89723C0.854688 8.96684 0.84864 9.03975 0.857431 9.11168C1.00165 10.3596 1.58097 11.5213 2.49842 12.4023C3.41587 13.2834 4.61578 13.8304 5.89729 13.9517V15.6498C5.89729 15.7957 5.9567 15.9356 6.06245 16.0387C6.1682 16.1419 6.31163 16.1998 6.46119 16.1998C6.61074 16.1998 6.75418 16.1419 6.85993 16.0387C6.96568 15.9356 7.02509 15.7957 7.02509 15.6498V13.9517C8.3066 13.8304 9.50651 13.2834 10.424 12.4023C11.3414 11.5213 11.9207 10.3596 12.0649 9.11168C12.0737 9.03975 12.0677 8.96684 12.0472 8.89723C12.0266 8.82762 11.992 8.76272 11.9454 8.70635C11.8988 8.64997 11.841 8.60327 11.7756 8.56898C11.7102 8.53469 11.6384 8.51351 11.5645 8.50668Z" fill="#EBF8FF"/>
</svg>
