<svg width="19" height="21" viewBox="0 0 19 21" fill="none" xmlns="http://www.w3.org/2000/svg">
<path d="M12.5 7.93262L8.5 11.9326L6.5 9.93262M17.5 9.09767C17.5 15.6659 12.5319 18.6107 10.4258 19.564L10.4231 19.5652C10.2016 19.6654 10.0906 19.7157 9.83887 19.7589C9.67946 19.7863 9.32154 19.7863 9.16214 19.7589C8.90942 19.7155 8.79723 19.6651 8.57395 19.564C6.4678 18.6107 1.5 15.6659 1.5 9.09766V5.13281C1.5 4.01271 1.5 3.45224 1.71799 3.02441C1.90973 2.64809 2.21547 2.34235 2.5918 2.1506C3.01962 1.93262 3.58009 1.93262 4.7002 1.93262H14.3002C15.4203 1.93262 15.9796 1.93262 16.4074 2.1506C16.7837 2.34235 17.0905 2.64809 17.2822 3.02441C17.5 3.45182 17.5 4.01161 17.5 5.12953V9.09767Z" stroke="#667085" stroke-width="2" stroke-linecap="round" stroke-linejoin="round"/>
</svg>
